<svg xmlns="http://www.w3.org/2000/svg" width="251" height="37" viewBox="0 0 251 37">
    <g fill="none" fill-rule="evenodd">
        <g>
            <g>
                <text fill="#2C2D2F" font-family="AppleColorEmoji, Apple Color Emoji" font-size="36" letter-spacing="54" transform="translate(-16 -310) translate(16 314)">
                    <tspan x=".5" y="36">⏱</tspan> <tspan x="90.57" y="40" font-size="32" letter-spacing="48">📞✅</tspan>
                </text>
                <g fill="#5A65FF">
                    <path d="M13.215 16.305l2.751-2.82c.471-.467 1.22-.46 1.683.014.462.475.469 1.242.014 1.725l-3.953 4.054c-.449.462-1.059.722-1.695.722-.636 0-1.246-.26-1.696-.722l-3.953-4.054c-.312-.309-.437-.766-.327-1.196.11-.43.438-.767.857-.88.42-.112.866.016 1.167.336l2.752 2.821V5.231c0-.68.537-1.231 1.2-1.231.663 0 1.2.551 1.2 1.23v11.075z" transform="translate(-16 -310) translate(16 314) rotate(90 76.75 81.75) matrix(1 0 0 -1 0 24)"/>
                </g>
                <g fill="#5A65FF">
                    <path d="M13.215 16.305l2.751-2.82c.471-.467 1.22-.46 1.683.014.462.475.469 1.242.014 1.725l-3.953 4.054c-.449.462-1.059.722-1.695.722-.636 0-1.246-.26-1.696-.722l-3.953-4.054c-.312-.309-.437-.766-.327-1.196.11-.43.438-.767.857-.88.42-.112.866.016 1.167.336l2.752 2.821V5.231c0-.68.537-1.231 1.2-1.231.663 0 1.2.551 1.2 1.23v11.075z" transform="translate(-16 -310) translate(16 314) rotate(90 35.75 40.75) matrix(1 0 0 -1 0 24)"/>
                </g>
            </g>
        </g>
    </g>
</svg>
