<svg xmlns="http://www.w3.org/2000/svg" xmlns:xlink="http://www.w3.org/1999/xlink" viewBox="0 0 94 96">
    <defs>
        <path id="a" d="M51.243.259l2.725 3.102-3.585 7.916 7.671 30.384-11.092 19.715-11.61-19.715 8.188-30.385-3.55-7.915L42.68.26h8.562z"/>
    </defs>
    <g fill="none" fill-rule="evenodd" transform="translate(0 2)">
        <path fill="#2E2A25" d="M12.455 15.238l-.303.33 34.713 63.02 34.59-62.797c7.43 8.241 11.95 19.14 11.95 31.09 0 25.705-20.91 46.542-46.702 46.542C20.91 93.423 0 72.586 0 46.882c0-12.22 4.726-23.34 12.455-31.644z"/>
        <path fill="#FFF" d="M46.703.162c13.8 0 26.203 5.965 34.753 15.45L46.865 78.408l-34.713-63.02C20.694 6.032 33.01.161 46.702.161z"/>
        <mask id="b" fill="#fff">
            <use xlink:href="#a"/>
        </mask>
        <use fill="#2E2A25" stroke="#2E2A25" stroke-linejoin="round" stroke-width="2.919" xlink:href="#a"/>
        <path fill="#FFB819" d="M87.01-24.926l2.216 3.227-48.61 33.139 58.66 30.219-1.802 3.473-60.536-31.185-6.133 4.182 68.468 35.272-1.802 3.474-70.344-36.239-6.133 4.181L99.27 65.143l-1.802 3.474-80.153-41.292-6.103 4.161 88.07 45.37-1.802 3.474L2.235 31.264l1.803-3.474 3.215 1.657 6.104-4.161-11.134-5.735 1.802-3.474 13.01 6.701 6.133-4.181L2.226 7.809l1.802-3.474 22.82 11.755 6.132-4.182L2.23-3.933 4.03-7.407 36.658 9.4 87.01-24.926z" mask="url(#b)"/>
    </g>
</svg>
