<svg xmlns="http://www.w3.org/2000/svg" viewBox="0 0 16 16">
    <g fill="none" fill-rule="evenodd">
        <circle cx="8" cy="8" r="8" fill="#40A051"/>
        <path fill="#FFF" d="M8 .75c4.004 0 7.25 3.246 7.25 7.25S12.004 15.25 8 15.25.75 12.004.75 8 3.996.75 8 .75zm0 .5C4.272 1.25 1.25 4.272 1.25 8S4.272 14.75 8 14.75s6.75-3.022 6.75-6.75S11.728 1.25 8 1.25zm1.604 4.478c.255-.278.689-.306.978-.061l.174.147c.14.12.228.289.242.471.014.183-.046.364-.168.502L7.355 10.76c-.125.143-.304.23-.495.239-.191.01-.378-.057-.517-.186L4.732 9.362c-.139-.123-.222-.295-.231-.477-.01-.183.055-.362.18-.498l.154-.168c.255-.278.69-.304.978-.06l.879.745z"/>
    </g>
</svg>
