<svg xmlns="http://www.w3.org/2000/svg" viewBox="0 0 16 16">
    <path fill="#5A65FF" fill-rule="evenodd" d="M8 16c4.387 0 8-3.612 8-7.996C16 3.619 12.379 0 7.992 0 3.606 0 0 3.62 0 8.004 0 12.388 3.613 16 8 16zM4.15 6.642c-.422 0-.713-.26-.713-.658 0-.39.291-.658.712-.658h7.725c.413 0 .704.267.704.658 0 .398-.29.658-.704.658H4.149zm.987 2.487c-.414 0-.712-.26-.712-.65 0-.399.298-.666.712-.666h5.741c.414 0 .712.267.712.665 0 .39-.298.65-.712.65H5.137zm1.026 2.494c-.421 0-.712-.268-.712-.658s.29-.658.712-.658h3.69c.42 0 .712.268.712.658s-.291.658-.712.658h-3.69z"/>
</svg>
