<svg xmlns="http://www.w3.org/2000/svg" width="24" height="25" viewBox="0 0 24 25">
    <g fill="none" fill-rule="evenodd">
        <path fill="#E1E2E6" d="M12 24c6.568 0 12-5.432 12-12S18.556 0 11.988 0C5.42 0 0 5.432 0 12s5.42 12 12 12z" transform="translate(0 .812)"/>
        <path fill="#2C2D2F" d="M6.544 10.564c.778 0 1.448.634 1.448 1.436 0 .778-.67 1.436-1.448 1.436-.765 0-1.447-.658-1.447-1.436 0-.802.646-1.436 1.447-1.436zm5.444 0c.778 0 1.448.634 1.448 1.436 0 .778-.67 1.436-1.448 1.436-.766 0-1.448-.658-1.448-1.436 0-.802.658-1.436 1.448-1.436zm5.444 0c.79 0 1.447.634 1.447 1.436 0 .778-.658 1.436-1.447 1.436-.766 0-1.448-.658-1.448-1.436 0-.802.658-1.436 1.448-1.436z" transform="translate(0 .812)"/>
    </g>
</svg>
