<svg xmlns="http://www.w3.org/2000/svg" viewBox="0 0 24 24">
    <g fill="none" fill-rule="evenodd">
        <path fill="#5A65FF" d="M23.173 8.156c.534 0 .827-.294.827-.841V3.898C24 1.32 22.666 0 20.064 0h-3.428c-.534 0-.84.294-.84.814 0 .534.306.828.84.828h3.388c1.481 0 2.322.8 2.322 2.336v3.337c0 .547.293.84.827.84zm-22.346 0c.534 0 .827-.294.827-.841V3.978c0-1.535.814-2.336 2.322-2.336h3.388c.534 0 .84-.294.84-.828 0-.52-.306-.814-.84-.814H3.936C1.334 0 0 1.308 0 3.898v3.417c0 .547.293.84.827.84zM3.936 24h3.428c.534 0 .84-.294.84-.828s-.306-.827-.84-.827H3.976c-1.508 0-2.322-.788-2.322-2.336v-3.337c0-.534-.293-.841-.827-.841S0 16.138 0 16.67v3.431C0 22.68 1.334 24 3.936 24zm12.7 0c-.534 0-.84-.294-.84-.828s.306-.827.84-.827h3.388c1.481 0 2.322-.788 2.322-2.336v-3.337c0-.534.28-.841.827-.841.52 0 .827.307.827.84v3.431C24 22.665 22.666 24 20.064 24h-3.428z"/>
        <path fill="#473525" d="M6.87 6.874v10.238h-.893V6.874h.893zm2.935 0v10.238H8.031V6.874h1.774zm1.881 0v10.238H10.58V6.874h1.107zm2.709 0v10.238h-1.721V6.874h1.72zm2.04 0v10.238h-1.347V6.874h1.348zm1.375 0v10.238h-.867V6.874h.867z"/>
    </g>
</svg>
