<svg xmlns="http://www.w3.org/2000/svg" width="16" height="16" viewBox="0 0 16 16">
    <path fill="#5A65FF" fill-rule="evenodd" d="M8 16c4.387 0 8-3.612 8-7.996C16 3.619 12.379 0 7.992 0 3.606 0 0 3.62 0 8.004 0 12.388 3.613 16 8 16zM7.556 3.512c.084-.26.245-.367.444-.367.207 0 .375.107.452.367l.895 2.717h2.886c.307 0 .506.16.506.451 0 .168-.084.321-.23.42l-2.342 1.7.918 2.731c.023.077.038.138.038.207 0 .268-.183.459-.451.459-.1 0-.2-.023-.283-.084L8 10.376l-2.389 1.737c-.084.053-.176.084-.283.084-.268 0-.444-.191-.444-.46 0-.06.008-.122.03-.206L5.842 8.8l-2.35-1.7c-.146-.099-.222-.252-.222-.42 0-.29.199-.451.498-.451h2.886l.903-2.717z"/>
</svg>
