<svg xmlns="http://www.w3.org/2000/svg" viewBox="0 0 17 15">
    <g fill="none" fill-rule="evenodd">
        <path fill="#F8C25B" d="M13.895 14.5H3.105c-.94 0-1.782-.485-2.252-1.296a2.559 2.559 0 0 1 0-2.592l5.395-9.316A2.575 2.575 0 0 1 8.5 0c.94 0 1.782.485 2.252 1.296l5.395 9.316c.47.811.47 1.78 0 2.592a2.576 2.576 0 0 1-2.252 1.296z"/>
        <path fill="#FFF" d="M8.5.745c.614 0 1.17.29 1.516.784l.089.14 5.395 9.315a1.823 1.823 0 0 1 0 1.847c-.307.53-.837.865-1.439.917l-.166.007H3.105c-.67 0-1.27-.345-1.605-.924a1.821 1.821 0 0 1-.077-1.7l.077-.147L6.895 1.67A1.835 1.835 0 0 1 8.5.745zm0 .539a1.51 1.51 0 0 0-1.32.76l-5.203 8.982a1.5 1.5 0 0 0 0 1.52c.276.476.77.76 1.32.76h10.405a1.51 1.51 0 0 0 1.32-.76 1.5 1.5 0 0 0 0-1.52L9.82 2.044a1.51 1.51 0 0 0-1.32-.76zm0 8.395c.532 0 .965.432.965.963a.965.965 0 0 1-1.93 0c0-.531.433-.963.965-.963zm0-5.771c.52 0 .942.421.942.939v3.048a.942.942 0 0 1-1.884 0V4.847c0-.518.422-.94.942-.94z"/>
    </g>
</svg>
