<svg xmlns="http://www.w3.org/2000/svg" xmlns:xlink="http://www.w3.org/1999/xlink" viewBox="0 0 96 107">
    <defs>
        <circle id="prefix__a" cx="48" cy="48" r="48"/>
        <circle id="prefix__c" cx="41.872" cy="41.872" r="41.872"/>
    </defs>
    <g fill="none" fill-rule="evenodd">
        <mask id="prefix__b" fill="#fff">
            <use xlink:href="#prefix__a"/>
        </mask>
        <use fill="#FFD370" xlink:href="#prefix__a"/>
        <path fill="#FBE3B4" d="M85.667 85.824C15.334 96.052 8.875 32.894 16.707 6.667.553 15.882-10.334 33.25-10.334 53.16c0 29.55 23.984 53.507 53.57 53.507 17.273 0 32.633-8.167 42.43-20.843z" mask="url(#prefix__b)"/>
        <g mask="url(#prefix__b)">
            <g transform="translate(6.667 6)">
                <use fill="#94775A" xlink:href="#prefix__c"/>
            </g>
        </g>
        <g fill="#FBE3B4" mask="url(#prefix__b)">
            <path d="M50.082 46.784c.744 0 1.62-.055 2.627-.166 1.007-.11 1.96-.442 2.857-.995.898-.553 1.664-1.416 2.3-2.588.634-1.172.952-2.82.952-4.944 0-1.725-.22-3.074-.657-4.047-.438-.974-1.03-1.703-1.774-2.19-.744-.487-1.598-.785-2.561-.896-.964-.11-1.949-.166-2.956-.166h-3.35v15.992h2.562zm-7.62 13.603h-4.597c-.087 0-.219-.033-.394-.1-.175-.066-.263-.276-.263-.63v-2.123c0-.354.055-.564.165-.63.109-.067.273-.1.492-.1h4.598v-5.707H37.93c-.35 0-.558-.066-.624-.199-.066-.133-.099-.31-.099-.53v-2.854c0-.221.033-.398.099-.53.066-.134.274-.2.624-.2h4.532V30.527h-3.875c-.35 0-.57-.066-.657-.2-.088-.132-.132-.309-.132-.53v-2.588c0-.221.044-.398.132-.53.087-.133.306-.2.657-.2H51.33c1.095 0 2.364.067 3.81.2 1.444.132 2.813.552 4.104 1.26 1.292.708 2.387 1.825 3.285 3.35.897 1.527 1.346 3.706 1.346 6.537 0 2.168-.274 4.003-.821 5.507-.547 1.505-1.248 2.743-2.102 3.716-.854.974-1.795 1.737-2.824 2.29-1.03.553-2.036.962-3.021 1.227-.986.266-1.894.42-2.726.465-.832.044-1.445.066-1.84.066h-3.02v5.707h8.012c.482 0 .767.1.854.298.088.2.132.476.132.83v1.725c0 .354-.099.564-.296.63-.197.067-.361.1-.492.1h-8.21v4.711h4.597c.35 0 .558.066.624.2.066.132.099.309.099.53v2.588c0 .354-.077.564-.23.63-.154.067-.318.1-.493.1h-13.53c-.35 0-.57-.078-.657-.232-.088-.155-.132-.321-.132-.498v-2.588c0-.354.077-.564.23-.63.154-.067.34-.1.559-.1h3.875v-4.711z"/>
        </g>
        <g>
            <g>
                <path fill="#FFC047" d="M35.721 34.667H6.945c-2.506 0-4.752-1.159-6.005-3.099-1.253-1.94-1.253-4.257 0-6.198L15.328 3.1C16.581 1.159 18.826 0 21.333 0c2.507 0 4.752 1.158 6.006 3.099L41.726 25.37c1.254 1.94 1.254 4.258 0 6.198-1.253 1.94-3.498 3.099-6.005 3.099z" transform="translate(53.333 69.333) translate(0 2.667)"/>
                <path fill="#FFF" d="M21.333 1.987c1.702 0 3.234.738 4.147 1.987l.133.192L40 26.143c.894 1.364.894 2.994 0 4.358-.85 1.3-2.342 2.1-4.025 2.173l-.254.006H6.946c-1.787 0-3.387-.815-4.28-2.179-.85-1.3-.891-2.839-.121-4.161l.121-.197L17.054 4.166c.893-1.365 2.493-2.18 4.28-2.18zm0 1.271c-1.47 0-2.786.67-3.52 1.793L3.94 26.242c-.736 1.123-.735 2.463 0 3.586.734 1.122 2.05 1.792 3.52 1.792h27.746c1.47 0 2.786-.67 3.521-1.792.735-1.123.735-2.463 0-3.586L24.854 5.051c-.735-1.123-2.051-1.793-3.52-1.793zm0 19.806c1.42 0 2.575 1.019 2.575 2.27 0 1.253-1.155 2.271-2.575 2.271-1.42 0-2.574-1.018-2.574-2.27s1.155-2.27 2.574-2.27zm0-13.616c1.385 0 2.512.994 2.512 2.216v7.19c0 1.222-1.127 2.216-2.512 2.216s-2.512-.994-2.512-2.216v-7.19c0-1.222 1.127-2.216 2.512-2.216z" transform="translate(53.333 69.333) translate(0 2.667)"/>
            </g>
        </g>
    </g>
</svg>
