<svg xmlns="http://www.w3.org/2000/svg" width="22" height="27" viewBox="0 0 22 27">
    <defs>
        <linearGradient id="a" x1="16.804%" x2="83.196%" y1="100%" y2="36.595%">
            <stop offset="0%" stop-color="#5A65FF"/>
            <stop offset="100%" stop-color="#83E0FF"/>
        </linearGradient>
    </defs>
    <g fill="none" fill-rule="evenodd">
        <rect width="22" height="27" fill="url(#a)" rx="3"/>
        <path fill="#FFF" fill-rule="nonzero" d="M17.92 21.625c.183 0 .366.138.366.369v.23c0 .23-.137.37-.366.37h-6.171a.362.362 0 0 1-.366-.37v-.23c0-.185.137-.37.366-.37h6.171zm-.137-11.942c.244 0 .415.145.45.372l.007.089c0 .276-.183.46-.457.46H4.114c-.244 0-.415-.145-.45-.371l-.007-.09c0-.276.183-.46.457-.46h13.669zm0-2.767c.244 0 .415.146.45.373l.007.088c0 .277-.183.461-.457.461H4.114c-.244 0-.415-.145-.45-.372l-.007-.089c0-.276.183-.46.457-.46h13.669z"/>
    </g>
</svg>
