<svg xmlns="http://www.w3.org/2000/svg" viewBox="0 0 16 16">
    <path fill="#F16F5B" fill-rule="evenodd" d="M7 8.524V16H2c-.551 0-1-.478-1-1.068V8.524h6zm8 0v6.408c0 .59-.448 1.068-1 1.068H9V8.524h6zM9.461.632c.783-.842 2.149-.844 2.933 0 .807.866.807 2.276 0 3.142-.136.148-.331.312-.558.478H15c.552 0 1 .48 1 1.068v1.602c0 .294-.224.534-.5.534H9V5.32H7v2.136H.5c-.276 0-.5-.24-.5-.534V5.32c0-.589.449-1.068 1-1.068h3.164c-.227-.166-.422-.33-.559-.478C2.8 2.908 2.8 1.498 3.606.632c.783-.842 2.149-.842 2.933 0 .433.465 1.583 2.356 1.425 3.62h.072c-.159-1.264.991-3.155 1.425-3.62zm-4.388.415c-.286 0-.555.12-.758.338-.419.45-.419 1.185 0 1.636.431.464 1.75 1.23 2.441 1.23.143 0 .185-.035.185-.035.233-.257-.437-2.107-1.111-2.831-.203-.218-.472-.338-.757-.338zm6.612.338c-.407-.437-1.112-.435-1.515 0-.674.724-1.344 2.574-1.111 2.831 0 .001.042.036.184.036.692 0 2.011-.767 2.442-1.23.42-.452.42-1.186 0-1.637z"/>
</svg>
