<svg xmlns="http://www.w3.org/2000/svg" viewBox="0 0 17 16">
    <g fill="none" fill-rule="evenodd">
        <path fill="#EF4F37" d="M11.828.092A.313.313 0 0 0 11.607 0H5.393a.313.313 0 0 0-.22.092L.591 4.672a.312.312 0 0 0-.092.221v6.214c0 .082.033.162.092.22l4.58 4.581a.313.313 0 0 0 .221.092h6.214a.313.313 0 0 0 .22-.092l4.581-4.58a.312.312 0 0 0 .092-.221V4.893a.312.312 0 0 0-.092-.22L11.828.091z"/>
        <path fill="#FFF" d="M11.427.75l4.323 4.323v5.854l-4.323 4.323H5.573L1.25 10.927V5.073L5.573.75h5.854zm-.359.5H5.932a.344.344 0 0 0-.244.1L1.851 5.19a.345.345 0 0 0-.101.243v5.136c0 .091.036.179.1.243l3.838 3.838c.065.065.153.101.244.101h5.136a.344.344 0 0 0 .244-.1l3.837-3.839a.345.345 0 0 0 .101-.243V5.432a.345.345 0 0 0-.1-.243L11.311 1.35a.344.344 0 0 0-.244-.101zM8.215 4c.216 0 .395.153.432.355l.007.078v2.74c0 .08.066.144.147.144.081 0 .147-.064.147-.144V4.721c0-.239.197-.433.44-.433.215 0 .395.154.432.355l.007.078v2.74c0 .08.066.145.147.145.08 0 .146-.065.146-.144V5.587c0-.24.197-.433.44-.433.216 0 .396.153.433.355l.007.078V9.48c0 .464-.183 2.019-2.23 2.019-1.237 0-1.898-.477-2.306-1.088-.365-.546-1.17-1.745-1.336-1.991l-.03-.045c-.173-.266-.111-.607.14-.763.251-.153.594-.064.77.203l.594.8V5.01c0-.24.197-.433.44-.433.216 0 .395.153.433.355l.007.078v2.163c0 .08.065.144.146.144.081 0 .147-.064.147-.144v-2.74c0-.24.197-.433.44-.433z"/>
    </g>
</svg>
