<svg xmlns="http://www.w3.org/2000/svg" xmlns:xlink="http://www.w3.org/1999/xlink" viewBox="0 0 160 160">
    <defs>
        <filter id="gjwxei7qza" width="255%" height="255%" x="-77.5%" y="-57.5%" filterUnits="objectBoundingBox">
            <feMorphology in="SourceAlpha" radius="6" result="shadowSpreadOuter1"/>
            <feOffset dy="16" in="shadowSpreadOuter1" result="shadowOffsetOuter1"/>
            <feGaussianBlur in="shadowOffsetOuter1" result="shadowBlurOuter1" stdDeviation="20"/>
            <feColorMatrix in="shadowBlurOuter1" result="shadowMatrixOuter1" values="0 0 0 0 0.337254902 0 0 0 0 0.250980392 0 0 0 0 0.176470588 0 0 0 0.24 0"/>
            <feMorphology in="SourceAlpha" radius="1" result="shadowSpreadOuter2"/>
            <feOffset dy="8" in="shadowSpreadOuter2" result="shadowOffsetOuter2"/>
            <feGaussianBlur in="shadowOffsetOuter2" result="shadowBlurOuter2" stdDeviation="4"/>
            <feColorMatrix in="shadowBlurOuter2" result="shadowMatrixOuter2" values="0 0 0 0 0.337254902 0 0 0 0 0.250980392 0 0 0 0 0.176470588 0 0 0 0.0777972028 0"/>
            <feOffset dy="-8" in="SourceAlpha" result="shadowOffsetOuter3"/>
            <feGaussianBlur in="shadowOffsetOuter3" result="shadowBlurOuter3" stdDeviation="4"/>
            <feColorMatrix in="shadowBlurOuter3" result="shadowMatrixOuter3" values="0 0 0 0 1 0 0 0 0 1 0 0 0 0 1 0 0 0 0.5 0"/>
            <feOffset dy="-2" in="SourceAlpha" result="shadowOffsetOuter4"/>
            <feGaussianBlur in="shadowOffsetOuter4" result="shadowBlurOuter4" stdDeviation=".5"/>
            <feColorMatrix in="shadowBlurOuter4" result="shadowMatrixOuter4" values="0 0 0 0 1 0 0 0 0 1 0 0 0 0 1 0 0 0 0.316679414 0"/>
            <feMerge>
                <feMergeNode in="shadowMatrixOuter1"/>
                <feMergeNode in="shadowMatrixOuter2"/>
                <feMergeNode in="shadowMatrixOuter3"/>
                <feMergeNode in="shadowMatrixOuter4"/>
            </feMerge>
        </filter>
        <filter id="msghqravzc" width="230%" height="230%" x="-65%" y="-45%" filterUnits="objectBoundingBox">
            <feMorphology in="SourceAlpha" radius="4" result="shadowSpreadInner1"/>
            <feOffset dy="-20" in="shadowSpreadInner1" result="shadowOffsetInner1"/>
            <feComposite in="shadowOffsetInner1" in2="SourceAlpha" k2="-1" k3="1" operator="arithmetic" result="shadowInnerInner1"/>
            <feColorMatrix in="shadowInnerInner1" values="0 0 0 0 1 0 0 0 0 1 0 0 0 0 1 0 0 0 0.324382649 0"/>
        </filter>
        <filter id="hyd3i6jske" width="104.5%" height="107.3%" x="-2.2%" y="-1.8%" filterUnits="objectBoundingBox">
            <feOffset dy="1" in="SourceAlpha" result="shadowOffsetOuter1"/>
            <feColorMatrix in="shadowOffsetOuter1" values="0 0 0 0 0.707880435 0 0 0 0 0.286440896 0 0 0 0 0.26604866 0 0 0 0.162805944 0"/>
        </filter>
        <linearGradient id="neqtzimg8d" x1="100.85%" x2="13.35%" y1="-7.195%" y2="91.081%">
            <stop offset="0%" stop-color="#FFB27D"/>
            <stop offset="100%" stop-color="#FF837D"/>
        </linearGradient>
        <linearGradient id="j25e433gqg" x1="80.809%" x2="27.795%" y1="-7.195%" y2="91.081%">
            <stop offset="0%" stop-color="#FFB27D"/>
            <stop offset="100%" stop-color="#FF837D"/>
        </linearGradient>
        <path id="mgmlabn5fb" d="M37.055 0h5.89c9.504 0 15.47 1.485 20.685 4.274 5.214 2.789 9.307 6.882 12.096 12.096C78.515 21.585 80 27.551 80 37.055v5.89c0 9.504-1.485 15.47-4.274 20.685-2.789 5.214-6.882 9.307-12.096 12.096C58.415 78.515 52.449 80 42.945 80h-5.89c-9.504 0-15.47-1.485-20.685-4.274-5.214-2.789-9.307-6.882-12.096-12.096C1.485 58.415 0 52.449 0 42.945v-5.89c0-9.504 1.485-15.47 4.274-20.685 2.789-5.214 6.882-9.307 12.096-12.096C21.585 1.485 27.551 0 37.055 0z"/>
        <path id="9xzneq7l3f" d="M17.528 26.311c2.04 0 3.694 1.654 3.694 3.695 0 2.04-1.654 3.694-3.694 3.694s-3.695-1.654-3.695-3.694 1.654-3.695 3.695-3.695zm10-10c2.04 0 3.694 1.654 3.694 3.695 0 2.04-1.654 3.694-3.694 3.694s-3.695-1.654-3.695-3.694 1.654-3.695 3.695-3.695zM12.472 6.278c2.04 0 3.695 1.654 3.695 3.694s-1.654 3.695-3.695 3.695c-2.04 0-3.694-1.654-3.694-3.695 0-2.04 1.654-3.694 3.694-3.694z"/>
    </defs>
    <g fill="none" fill-rule="evenodd" transform="translate(40 24)">
        <use fill="#000" filter="url(#gjwxei7qza)" xlink:href="#mgmlabn5fb"/>
        <use fill="#EDE1D5" xlink:href="#mgmlabn5fb"/>
        <use fill="#000" filter="url(#msghqravzc)" xlink:href="#mgmlabn5fb"/>
        <g fill-rule="nonzero" transform="translate(20 20)">
            <path fill="url(#neqtzimg8d)" d="M32.816 0H7.184C3.223 0 0 3.223 0 7.184v25.632C0 36.777 3.223 40 7.184 40h25.632C36.777 40 40 36.777 40 32.816V7.184C40 3.223 36.777 0 32.816 0z"/>
            <path fill="#FFF" fill-opacity=".6" d="M20.984 28.863h12.82c1.556 0 1.557 2.353 0 2.353h-12.82c-1.126 3.335-5.86 3.34-6.988 0h-7.8c-1.556 0-1.557-2.353 0-2.353h7.8c1.127-3.335 5.86-3.34 6.988 0zm10.04-10.04h2.78c1.556 0 1.557 2.353 0 2.353h-2.78c-1.127 3.336-5.86 3.34-6.989 0H6.196c-1.556 0-1.557-2.352 0-2.352h17.84c1.126-3.336 5.86-3.34 6.988 0zM15.964 8.785h17.84c1.556 0 1.557 2.353 0 2.353h-17.84c-1.126 3.335-5.86 3.34-6.988 0h-2.78c-1.556 0-1.557-2.353 0-2.353h2.78c1.127-3.335 5.86-3.34 6.989 0z"/>
            <use fill="#000" filter="url(#hyd3i6jske)" xlink:href="#9xzneq7l3f"/>
            <use fill="#FEF9F0" xlink:href="#9xzneq7l3f"/>
            <path fill="url(#j25e433gqg)" d="M17.49 28.706c1.763 0 1.764 2.667 0 2.666-1.763 0-1.764-2.666 0-2.666zm10.04-10.04c1.763 0 1.764 2.667 0 2.667s-1.765-2.666 0-2.666zM12.47 8.628c1.764 0 1.765 2.667 0 2.667-1.763 0-1.764-2.667 0-2.667z"/>
        </g>
    </g>
</svg>
