<svg xmlns="http://www.w3.org/2000/svg" xmlns:xlink="http://www.w3.org/1999/xlink" viewBox="0 0 160 160">
    <defs>
        <filter id="typrdzql0a" width="255%" height="255%" x="-77.5%" y="-57.5%" filterUnits="objectBoundingBox">
            <feMorphology in="SourceAlpha" radius="6" result="shadowSpreadOuter1"/>
            <feOffset dy="16" in="shadowSpreadOuter1" result="shadowOffsetOuter1"/>
            <feGaussianBlur in="shadowOffsetOuter1" result="shadowBlurOuter1" stdDeviation="20"/>
            <feColorMatrix in="shadowBlurOuter1" result="shadowMatrixOuter1" values="0 0 0 0 0.337254902 0 0 0 0 0.250980392 0 0 0 0 0.176470588 0 0 0 0.24 0"/>
            <feMorphology in="SourceAlpha" radius="1" result="shadowSpreadOuter2"/>
            <feOffset dy="8" in="shadowSpreadOuter2" result="shadowOffsetOuter2"/>
            <feGaussianBlur in="shadowOffsetOuter2" result="shadowBlurOuter2" stdDeviation="4"/>
            <feColorMatrix in="shadowBlurOuter2" result="shadowMatrixOuter2" values="0 0 0 0 0.337254902 0 0 0 0 0.250980392 0 0 0 0 0.176470588 0 0 0 0.0777972028 0"/>
            <feOffset dy="-8" in="SourceAlpha" result="shadowOffsetOuter3"/>
            <feGaussianBlur in="shadowOffsetOuter3" result="shadowBlurOuter3" stdDeviation="4"/>
            <feColorMatrix in="shadowBlurOuter3" result="shadowMatrixOuter3" values="0 0 0 0 1 0 0 0 0 1 0 0 0 0 1 0 0 0 0.5 0"/>
            <feOffset dy="-2" in="SourceAlpha" result="shadowOffsetOuter4"/>
            <feGaussianBlur in="shadowOffsetOuter4" result="shadowBlurOuter4" stdDeviation=".5"/>
            <feColorMatrix in="shadowBlurOuter4" result="shadowMatrixOuter4" values="0 0 0 0 1 0 0 0 0 1 0 0 0 0 1 0 0 0 0.316679414 0"/>
            <feMerge>
                <feMergeNode in="shadowMatrixOuter1"/>
                <feMergeNode in="shadowMatrixOuter2"/>
                <feMergeNode in="shadowMatrixOuter3"/>
                <feMergeNode in="shadowMatrixOuter4"/>
            </feMerge>
        </filter>
        <filter id="t3d84ixqyc" width="230%" height="230%" x="-65%" y="-45%" filterUnits="objectBoundingBox">
            <feMorphology in="SourceAlpha" radius="4" result="shadowSpreadInner1"/>
            <feOffset dy="-20" in="shadowSpreadInner1" result="shadowOffsetInner1"/>
            <feComposite in="shadowOffsetInner1" in2="SourceAlpha" k2="-1" k3="1" operator="arithmetic" result="shadowInnerInner1"/>
            <feColorMatrix in="shadowInnerInner1" values="0 0 0 0 1 0 0 0 0 1 0 0 0 0 1 0 0 0 0.324382649 0"/>
        </filter>
        <filter id="35lmyxfsih" width="102.3%" height="102.3%" x="-1.2%" y="-1.2%" filterUnits="objectBoundingBox">
            <feOffset dy=".5" in="SourceAlpha" result="shadowOffsetInner1"/>
            <feComposite in="shadowOffsetInner1" in2="SourceAlpha" k2="-1" k3="1" operator="arithmetic" result="shadowInnerInner1"/>
            <feColorMatrix in="shadowInnerInner1" values="0 0 0 0 0.83 0 0 0 0 0.54943662 0 0 0 0 0 0 0 0 0.88 0"/>
        </filter>
        <filter id="lmcr8erlcj" width="102.3%" height="103.5%" x="-1.2%" y="-1.8%" filterUnits="objectBoundingBox">
            <feOffset dy=".5" in="SourceAlpha" result="shadowOffsetInner1"/>
            <feComposite in="shadowOffsetInner1" in2="SourceAlpha" k2="-1" k3="1" operator="arithmetic" result="shadowInnerInner1"/>
            <feColorMatrix in="shadowInnerInner1" values="0 0 0 0 0.831372549 0 0 0 0 0.549019608 0 0 0 0 0 0 0 0 0.880954983 0"/>
        </filter>
        <linearGradient id="pmnfeaa9kd" x1="50.152%" x2="49.97%" y1="16.051%" y2="68.916%">
            <stop offset="0%" stop-color="#FAC12B"/>
            <stop offset="100%" stop-color="#F6A000"/>
        </linearGradient>
        <linearGradient id="whwumaeaxe" x1="50.256%" x2="49.95%" y1="16.051%" y2="68.916%">
            <stop offset="0%" stop-color="#FAC12B"/>
            <stop offset="100%" stop-color="#F6A000"/>
        </linearGradient>
        <linearGradient id="awujgk84uf" x1="70.363%" x2="46.005%" y1="16.051%" y2="68.916%">
            <stop offset="0%" stop-color="#FAC12B"/>
            <stop offset="100%" stop-color="#F6A000"/>
        </linearGradient>
        <path id="taq7kwljfb" d="M37.055 0h5.89c9.504 0 15.47 1.485 20.685 4.274 5.214 2.789 9.307 6.882 12.096 12.096C78.515 21.585 80 27.551 80 37.055v5.89c0 9.504-1.485 15.47-4.274 20.685-2.789 5.214-6.882 9.307-12.096 12.096C58.415 78.515 52.449 80 42.945 80h-5.89c-9.504 0-15.47-1.485-20.685-4.274-5.214-2.789-9.307-6.882-12.096-12.096C1.485 58.415 0 52.449 0 42.945v-5.89c0-9.504 1.485-15.47 4.274-20.685 2.789-5.214 6.882-9.307 12.096-12.096C21.585 1.485 27.551 0 37.055 0z"/>
        <path id="t4289eiokg" d="M18.778 32c.491 0 .889.398.889.889v3.555c0 .492-.398.89-.89.89H17c-1.47 0-2.667-1.197-2.667-2.667v-1.778c0-.491.398-.889.89-.889h3.555zm7.11 0c.492 0 .89.398.89.889v3.555c0 .492-.398.89-.89.89h-3.555c-.491 0-.889-.398-.889-.89V32.89c0-.492.398-.89.89-.89h3.555zm.89-16c.491 0 .889.398.889.889v3.556c0 .49-.398.888-.89.888h-3.555c-.491 0-.889-.397-.889-.888v-3.556c0-.491.398-.889.89-.889h3.555zm-7.111 0c.491 0 .889.398.889.889v3.556c0 .49-.398.888-.89.888h-4.444c-.491 0-.889-.397-.889-.888v-1.778C14.333 17.197 15.53 16 17 16h2.667zM33 16c1.47 0 2.667 1.196 2.667 2.667v1.777c0 .492-.398.89-.89.89h-4.444c-.491 0-.889-.398-.889-.89V16.89c0-.491.398-.89.89-.89H33z"/>
        <path id="zdvbvnxc5i" d="M35.667 34.667c0 1.47-1.197 2.666-2.667 2.666h-3.556c-.49 0-.889-.397-.889-.889v-5.333c0-.49-.398-.889-.888-.889H15.222c-.491 0-.889-.397-.889-.889V24c0-.491.398-.889.89-.889h19.555c.491 0 .889.398.889.889v10.667z"/>
    </defs>
    <g fill="none" fill-rule="evenodd" transform="translate(40 24)">
        <use fill="#000" filter="url(#typrdzql0a)" xlink:href="#taq7kwljfb"/>
        <use fill="#EDE1D5" xlink:href="#taq7kwljfb"/>
        <use fill="#000" filter="url(#t3d84ixqyc)" xlink:href="#taq7kwljfb"/>
        <g fill-rule="nonzero">
            <path fill="url(#pmnfeaa9kd)" d="M2 6.258v30.877c-1.143-.257-2-1.29-2-2.522V8.78c0-1.233.857-2.266 2-2.522z" transform="translate(18 19)"/>
            <path fill="url(#whwumaeaxe)" d="M7 3.556V39.11c0 .307.04.605.113.89C5.395 40 4 38.616 4 36.916V6.083C4 4.383 5.395 3 7.111 3l-.068.002c-.028.18-.043.365-.043.554z" transform="translate(18 19)"/>
            <path fill="url(#awujgk84uf)" d="M40.74 9.15L31.847.26C31.681.094 31.455 0 31.22 0H12.556C10.595 0 9 1.595 9 3.556V39.11c0 1.961 1.595 3.556 3.556 3.556h24.888c1.961 0 3.556-1.595 3.556-3.556V9.778c0-.236-.094-.462-.26-.629z" transform="translate(18 19)"/>
            <g opacity=".88" transform="translate(18 19)">
                <use fill="#FFF" xlink:href="#t4289eiokg"/>
                <use fill="#000" filter="url(#35lmyxfsih)" xlink:href="#t4289eiokg"/>
            </g>
            <g opacity=".722" transform="translate(18 19)">
                <use fill="#FFF" xlink:href="#zdvbvnxc5i"/>
                <use fill="#000" filter="url(#lmcr8erlcj)" xlink:href="#zdvbvnxc5i"/>
            </g>
        </g>
    </g>
</svg>
