<svg xmlns="http://www.w3.org/2000/svg" xmlns:xlink="http://www.w3.org/1999/xlink" width="160" height="160" viewBox="0 0 160 160">
    <defs>
        <filter id="2pjhr6c7ha" width="255%" height="255%" x="-77.5%" y="-57.5%" filterUnits="objectBoundingBox">
            <feMorphology in="SourceAlpha" radius="6" result="shadowSpreadOuter1"/>
            <feOffset dy="16" in="shadowSpreadOuter1" result="shadowOffsetOuter1"/>
            <feGaussianBlur in="shadowOffsetOuter1" result="shadowBlurOuter1" stdDeviation="20"/>
            <feColorMatrix in="shadowBlurOuter1" result="shadowMatrixOuter1" values="0 0 0 0 0.337254902 0 0 0 0 0.250980392 0 0 0 0 0.176470588 0 0 0 0.24 0"/>
            <feMorphology in="SourceAlpha" radius="1" result="shadowSpreadOuter2"/>
            <feOffset dy="8" in="shadowSpreadOuter2" result="shadowOffsetOuter2"/>
            <feGaussianBlur in="shadowOffsetOuter2" result="shadowBlurOuter2" stdDeviation="4"/>
            <feColorMatrix in="shadowBlurOuter2" result="shadowMatrixOuter2" values="0 0 0 0 0.337254902 0 0 0 0 0.250980392 0 0 0 0 0.176470588 0 0 0 0.0777972028 0"/>
            <feOffset dy="-8" in="SourceAlpha" result="shadowOffsetOuter3"/>
            <feGaussianBlur in="shadowOffsetOuter3" result="shadowBlurOuter3" stdDeviation="4"/>
            <feColorMatrix in="shadowBlurOuter3" result="shadowMatrixOuter3" values="0 0 0 0 1 0 0 0 0 1 0 0 0 0 1 0 0 0 0.5 0"/>
            <feOffset dy="-2" in="SourceAlpha" result="shadowOffsetOuter4"/>
            <feGaussianBlur in="shadowOffsetOuter4" result="shadowBlurOuter4" stdDeviation=".5"/>
            <feColorMatrix in="shadowBlurOuter4" result="shadowMatrixOuter4" values="0 0 0 0 1 0 0 0 0 1 0 0 0 0 1 0 0 0 0.316679414 0"/>
            <feMerge>
                <feMergeNode in="shadowMatrixOuter1"/>
                <feMergeNode in="shadowMatrixOuter2"/>
                <feMergeNode in="shadowMatrixOuter3"/>
                <feMergeNode in="shadowMatrixOuter4"/>
            </feMerge>
        </filter>
        <filter id="upzjzblzxc" width="230%" height="230%" x="-65%" y="-45%" filterUnits="objectBoundingBox">
            <feMorphology in="SourceAlpha" radius="4" result="shadowSpreadInner1"/>
            <feOffset dy="-20" in="shadowSpreadInner1" result="shadowOffsetInner1"/>
            <feComposite in="shadowOffsetInner1" in2="SourceAlpha" k2="-1" k3="1" operator="arithmetic" result="shadowInnerInner1"/>
            <feColorMatrix in="shadowInnerInner1" result="shadowMatrixInner1" values="0 0 0 0 1 0 0 0 0 1 0 0 0 0 1 0 0 0 0.324382649 0"/>
            <feMorphology in="SourceAlpha" radius="4" result="shadowSpreadInner2"/>
            <feOffset dy="-16" in="shadowSpreadInner2" result="shadowOffsetInner2"/>
            <feComposite in="shadowOffsetInner2" in2="SourceAlpha" k2="-1" k3="1" operator="arithmetic" result="shadowInnerInner2"/>
            <feColorMatrix in="shadowInnerInner2" result="shadowMatrixInner2" values="0 0 0 0 1 0 0 0 0 1 0 0 0 0 1 0 0 0 0.0403463724 0"/>
            <feMorphology in="SourceAlpha" radius="4" result="shadowSpreadInner3"/>
            <feOffset dy="-12" in="shadowSpreadInner3" result="shadowOffsetInner3"/>
            <feComposite in="shadowOffsetInner3" in2="SourceAlpha" k2="-1" k3="1" operator="arithmetic" result="shadowInnerInner3"/>
            <feColorMatrix in="shadowInnerInner3" result="shadowMatrixInner3" values="0 0 0 0 1 0 0 0 0 1 0 0 0 0 1 0 0 0 0.0441433566 0"/>
            <feMerge>
                <feMergeNode in="shadowMatrixInner1"/>
                <feMergeNode in="shadowMatrixInner2"/>
                <feMergeNode in="shadowMatrixInner3"/>
            </feMerge>
        </filter>
        <filter id="3taamtipae" width="122%" height="116.7%" x="-11%" y="-4.2%" filterUnits="objectBoundingBox">
            <feOffset dy="1" in="SourceAlpha" result="shadowOffsetOuter1"/>
            <feGaussianBlur in="shadowOffsetOuter1" result="shadowBlurOuter1" stdDeviation=".25"/>
            <feColorMatrix in="shadowBlurOuter1" values="0 0 0 0 0.089768524 0 0 0 0 0.237623822 0 0 0 0 0.833814538 0 0 0 0.164226399 0"/>
        </filter>
        <path id="ey8i9fi8xb" d="M37.055 0h5.89c9.504 0 15.47 1.485 20.685 4.274 5.214 2.789 9.307 6.882 12.096 12.096C78.515 21.585 80 27.551 80 37.055v5.89c0 9.504-1.485 15.47-4.274 20.685-2.789 5.214-6.882 9.307-12.096 12.096C58.415 78.515 52.449 80 42.945 80h-5.89c-9.504 0-15.47-1.485-20.685-4.274-5.214-2.789-9.307-6.882-12.096-12.096C1.485 58.415 0 52.449 0 42.945v-5.89c0-9.504 1.485-15.47 4.274-20.685 2.789-5.214 6.882-9.307 12.096-12.096C21.585 1.485 27.551 0 37.055 0z"/>
        <path id="2g8ue3ioxf" d="M25.356 33.004c.075 0 .145-.014.21-.042.065-.028.098-.117.098-.266v-1.092c0-.093-.014-.168-.042-.224-.028-.056-.117-.084-.266-.084h-1.96v-1.988h3.5c.056 0 .126-.014.21-.042.084-.028.126-.117.126-.266v-.728c0-.15-.019-.266-.056-.35-.037-.084-.159-.126-.364-.126h-3.416v-2.408h1.38c.166-.003.396-.012.692-.028.355-.019.742-.084 1.162-.196.42-.112.85-.285 1.288-.518.439-.233.84-.555 1.204-.966.364-.41.663-.933.896-1.568.233-.635.35-1.41.35-2.324 0-1.195-.191-2.114-.574-2.758-.383-.644-.85-1.115-1.4-1.414-.55-.299-1.134-.476-1.75-.532-.616-.056-1.157-.084-1.624-.084h-5.432c-.15 0-.243.028-.28.084-.037.056-.056.13-.056.224V16.4c0 .093.019.168.056.224.037.056.13.084.28.084h1.652v6.86h-1.932c-.15 0-.238.028-.266.084-.028.056-.042.13-.042.224v1.204c0 .093.014.168.042.224.028.056.117.084.266.084h1.932v2.408h-1.96c-.093 0-.163.014-.21.042-.047.028-.07.117-.07.266V29c0 .15.037.238.112.266.075.028.13.042.168.042h1.96v1.988h-1.652c-.093 0-.173.014-.238.042-.065.028-.098.117-.098.266v1.092c0 .075.019.145.056.21.037.065.13.098.28.098h5.768zm-.868-9.436h-1.092V16.82h1.428c.43 0 .85.023 1.26.07.41.047.775.173 1.092.378.317.205.57.513.756.924.187.41.28.98.28 1.708 0 .896-.135 1.591-.406 2.086-.27.495-.597.859-.98 1.092-.383.233-.789.373-1.218.42-.43.047-.803.07-1.12.07z"/>
        <linearGradient id="1jffkfnl6d" x1="0%" x2="100%" y1="100%" y2="36.595%">
            <stop offset="0%" stop-color="#5A65FF"/>
            <stop offset="100%" stop-color="#83E0FF"/>
        </linearGradient>
    </defs>
    <g fill="none" fill-rule="evenodd" transform="translate(40 24)">
        <use fill="#000" filter="url(#2pjhr6c7ha)" xlink:href="#ey8i9fi8xb"/>
        <use fill="#EDE1D5" xlink:href="#ey8i9fi8xb"/>
        <use fill="#000" filter="url(#upzjzblzxc)" xlink:href="#ey8i9fi8xb"/>
        <g transform="translate(16 16)">
            <circle cx="24" cy="24" r="24" fill="url(#1jffkfnl6d)"/>
            <circle cx="24" cy="24" r="21" fill="#FFF" fill-opacity=".603"/>
            <circle cx="24" cy="24" r="19" fill="url(#1jffkfnl6d)"/>
            <g fill-rule="nonzero">
                <use fill="#000" filter="url(#3taamtipae)" xlink:href="#2g8ue3ioxf"/>
                <use fill="#F2F5FF" xlink:href="#2g8ue3ioxf"/>
            </g>
        </g>
    </g>
</svg>
