<svg xmlns="http://www.w3.org/2000/svg" viewBox="0 0 192 192">
    <g fill="none" fill-rule="evenodd">
        <path fill="#FFD370" d="M100.439 6.93l8.203.575c19.363 1.354 34.242 6.023 46.447 13.691 12.206 7.668 21.462 18.316 27.357 31.47 5.894 13.154 8.448 28.538 7.094 47.9l-.309 4.41c-1.353 19.362-6.023 34.24-13.691 46.446-7.668 12.206-18.315 21.462-31.47 27.357-13.154 5.894-28.538 8.448-47.9 7.094l-8.204-.574c-19.363-1.354-34.241-6.023-46.447-13.691-12.206-7.669-21.462-18.316-27.357-31.47-5.894-13.155-8.448-28.538-7.094-47.9l.309-4.41C8.73 68.466 13.4 53.588 21.068 41.381c7.668-12.206 18.316-21.461 31.47-27.356 13.154-5.895 28.538-8.448 47.9-7.094z" transform="translate(-2)"/>
        <path fill="#FFF" d="M79.9 78.688c11.922.572 31.961 3.566 52.233 13.934 24.117 12.335 25.289 21.865 23.81 24.393-1.111 1.902-5.22 7.424-17.632 3.617-8.39-2.574-26.593-11.898-32.439-15.503-.256-.125-.512-.242-.77-.353-1.016.112-1.897.238-2.366.39-1.606.517-3.253 6.918-3.841 6.984-.449.05-1.999-4.016-2.854-6.194l-6.578 5.94c6.97 3.06 12.655 6.77 14.608 8.319 4.56 3.615 5.15 6.438-1.447 5.325-3.605-.608-10.64-1.977-19.564-6.384-.388-.191-.763-.347-1.126-.47-16.2 14.614-39.81 35.876-40.362 36.163-1.584.825-5.06-.124-4.073-2.955.456-1.309 9.884-9.637 27.858-24.56-.84-.135-1.75-.495-2.75-1.142-4.915-3.176-9.022-8.064-6.721-13.907 2.042-5.187 10.534-5.776 18.395-4.722l.169.022-.262-.064c-6.017-1.515-11.517-3.272-14.248-5.705C42.168 85.979 63.863 78.79 74.044 78.59c1.624-.032 3.594-.01 5.856.098zm1.641 53.46c-1.084.132-5.51-.547-10.436-2.156-5.065-1.654 15.725 1.515 10.436 2.157zm11.418-27.45l-.272.107c-2.523 1.017-5.097 2.629-7.722 4.836l-.376.32c.442.155.881.316 1.317.48 2.272-1.853 4.624-3.768 7.053-5.742zm-18.51 2.887l.256.065c3.282.815 6.696 1.562 9.884 2.31l-.257-.09c-2.609-.899-6.07-1.748-9.689-2.257l-.193-.028z" transform="translate(-2)"/>
        <g stroke="#2E2411">
            <path stroke-width="1.5" d="M89.943 5.807c.716-.26 1.085-1.052.825-1.768S89.716 2.954 89 3.215c-.716.26-1.085 1.052-.825 1.768.261.715 1.053 1.085 1.768.824zM104.744 33.42c1.79-.65 2.712-2.63 2.06-4.42-.65-1.789-2.63-2.711-4.419-2.06-1.79.651-2.712 2.63-2.06 4.42.65 1.79 2.63 2.712 4.419 2.06z" transform="translate(-2) translate(38 42)"/>
            <path stroke-linecap="round" stroke-linejoin="round" stroke-width="2" d="M56.534 56.351C19.835 86.16 1.157 102.006.5 103.894c-.987 2.831 2.49 3.78 4.073 2.955.84-.437 54.47-48.667 54.63-48.802" transform="translate(-2) translate(38 42)"/>
            <path stroke-linecap="round" stroke-linejoin="round" stroke-width="2" d="M44.541 84.149c-1.084.131-5.51-.548-10.436-2.157m-8.498-3.8c-4.915-3.176-9.022-8.064-6.721-13.907 3.048-7.741 20.363-5.24 28.61-2.325 9.094 3.215 17.182 8.358 19.575 10.255 4.56 3.615 5.15 6.438-1.447 5.325-3.605-.608-10.64-1.977-19.564-6.384m-5.41-3.927c-4.504-3.037-14.264-9.14-17.71-13.413-12.602-15.63 3.923-23.025 14.104-23.226 10.182-.2 33.971 1.697 58.089 14.032 24.117 12.335 25.289 21.865 23.81 24.393-1.111 1.902-5.22 7.424-17.632 3.617-8.39-2.574-26.593-11.898-32.439-15.503m-13.776-11.51C43.076 34.8 36.875 21.257 39.785 13.763c3.47-8.936 16.214-12.005 38.232-9.208" transform="translate(-2) translate(38 42)"/>
            <path stroke-linecap="round" stroke-linejoin="round" stroke-width="1.5" d="M1.73 57.709c.53 1.458-.174 4.149-1.73 5.31 2.036-.741 3.875.852 4.356 1.906-.23-1.292.575-3.909 1.749-4.723-1.535.56-3.915-1.229-4.376-2.493zM99.215 6.29c.89-1.27 3.499-2.237 5.342-1.629-1.775-1.243-1.525-3.663-.937-4.661-.927.93-3.531 1.771-4.872 1.276 1.338.937 1.24 3.912.467 5.014zM79.371 71.304c.329.903.45 2.366-1.165 3.077 1.261-.46 2.494.738 2.791 1.39-.142-.8.356-2.42 1.083-2.923-1.675.61-2.424-.761-2.709-1.544z" transform="translate(-2) translate(38 42)"/>
            <path stroke-linecap="round" stroke-linejoin="round" stroke-width="2" d="M62.546 45.857c-4.246-2.74-6.515-4.048-6.805-3.923-.436.188.686 7.148.74 7.608.053.46-6.11 4.991-5.866 5.72.243.728 7.557.832 7.884 1.39.328.559 2.808 7.563 3.396 7.498.588-.066 2.235-6.467 3.84-6.984 1.607-.518 8.03-.746 8.207-1.037.177-.291-5.5-5.268-5.857-5.864-.357-.596 2.126-7.614 1.885-7.783-.161-.113-2.078.74-5.749 2.56" transform="translate(-2) translate(38 42)"/>
        </g>
    </g>
</svg>
