<svg xmlns="http://www.w3.org/2000/svg" viewBox="0 0 272 272">
    <g fill="none" fill-rule="evenodd">
        <g>
            <g>
                <g>
                    <path fill="#FFD370" d="M132.059 9.917h11.91c27.342 0 48.856 5.128 66.863 14.759 18.008 9.63 32.14 23.763 41.77 41.77 9.63 18.007 14.76 39.521 14.76 66.863v5.847c0 27.341-5.13 48.856-14.76 66.863-9.63 18.007-23.762 32.14-41.77 41.77-18.007 9.63-39.521 14.76-66.863 14.76h-11.91c-27.342 0-48.856-5.13-66.863-14.76-18.007-9.63-32.14-23.763-41.77-41.77-9.63-18.007-14.76-39.522-14.76-66.863v-5.847c0-27.342 5.13-48.856 14.76-66.863 9.63-18.007 23.763-32.14 41.77-41.77 18.007-9.63 39.521-14.76 66.863-14.76z" transform="translate(-53 -433) translate(16 292) translate(34 141) rotate(4 138.014 136.232)"/>
                    <path fill="#FFF" d="M128.804 69.448c1.053-.23 1.826.667 2.318 2.695.413-.534.914-.771 1.503-.713 1.777.528 1.002 3.415-.686 5.374 5.371-1.607 10.07 3.04 14.098 13.943 1.31-1.222 7.8-8.362 10.152-7.752 2.352.61 7.02 20.703 11.852 67.448 3.33 3.664 14.059 12.79 6.326 30.327.36 2.461.574 5.184.644 8.17.79.212 1.578.564 2.364 1.053l.095.06.056-.206c1.072-3.668 4.488-5.55 9.145-5.246l.344.026c4.949.43 8.164 3.008 8.476 7.062l.01.191.247-.044c3.124-.512 6.007.966 8.76 4.349 1.06-1.277 2.195-2.076 3.595-2.417 2.642-.647 4.71.721 5.446 2.955l.048.156.098-.092c1.698-1.543 3.8-1.7 6.087-.64l.265.128c4.52 2.463 6.719 5.983 6.596 10.558-9.508 1.413-176.21 2.83-179.263 0-1.914-2.882-2.625-11.752-.863-15.51.303-.646 1.198-.709 1.588-.11.409.629 1.22 1.592 2.328 2.785l.845.896.6.621.93.941-.013-.13c-.105-1.248-.051-2.512.217-3.743l.111-.46c.311-1.176.819-2.257 1.547-3.213.305-.4.877-.478 1.277-.172 3.153 2.412 5.255 6.58 5.895 12.947l.018.196.333-.632.22-.393c1.04-1.796 2.086-2.721 3.63-2.929 1.087-.147 2.052.13 2.908.81l.268.23.013-.096c.256-1.593 1.029-2.589 2.379-2.851l.207-.034c1.659-.224 2.788.401 4.064 2.297 1.622-3.119 3.527-4.61 5.74-4.28l.113.018-.003-.178c-.036-3.99 2.004-6.669 5.491-7.257l.271-.04c.46-.063.904-.084 1.334-.067.932-11.681 2.677-22.347 5.237-31.997-2.607-3.321-2.308-7.948.896-13.88-.343-19.472 8.297-57.748 9.983-58.121 1.686-.374 4.775 3.183 10.633 8.452 1.738-4.861 6.586-15.66 13.227-14.376.096-.178.163-.287.2-.329-1.519-.79-2.595-6.254-.2-6.78z" transform="translate(-53 -433) translate(16 292) translate(34 141)"/>
                    <path fill="#2E2411" d="M134.476 62.944c.27.33.443.719.637 1.303.085.255.17.526.252.803.135-.177.29-.326.473-.455.669-.47 1.586-.271 1.917.588.161.418.149.858.045 1.372-.185.919-.538 1.743-1.014 2.34l-.155.183-.085.092-.326.33c-.135.137-.207.218-.273.311.064-.044.135-.08.212-.108l.077-.026c.142-.256.404-.439.717-.466.234-.02.455.05.629.181 5.295-.472 10.234 6.652 12.69 14.264l1.73-1.663c5.52-5.31 7.451-6.855 8.899-5.923 1.188.764 3.914 12.973 6.484 28.521 11.888-.543 25.836.097 33.316 1.775.491.11.8.599.69 1.091-.11.492-.597.802-1.088.692-7.265-1.63-20.933-2.261-32.621-1.742.305 1.883.607 3.808.902 5.763 8.39-.017 14.655.616 21.536 2.543 3.118.874 6.071 1.987 8.85 3.366.452.224.636.772.413 1.224-.223.452-.77.637-1.22.413-2.675-1.326-5.522-2.4-8.534-3.243-6.611-1.852-12.674-2.478-20.771-2.476.192 1.306.383 2.624.569 3.949 8.748 2.05 18.217 5.522 23.892 9.931.397.31.47.883.161 1.282-.308.399-.88.471-1.278.162-5.283-4.106-14.174-7.41-22.504-9.428 1.085 7.925 2.02 16.027 2.627 23.464 1.329 1.56 2.755 3.278 4.326 5.197 2.205 2.696 3.706 5.86 4.362 9.234.919 4.741.19 10.178-2.508 15.747.544 3.89.773 7.303.782 11.063 0 .206-.068.397-.183.55.368.167.736.366 1.104.595l.095.06.056-.206c1.072-3.668 4.488-5.55 9.146-5.246l.343.026c4.949.43 8.165 3.008 8.476 7.062l.01.191.247-.044c3.124-.512 6.006.965 8.76 4.347 1.061-1.275 2.195-2.074 3.595-2.415 2.642-.647 4.71.721 5.446 2.955l.049.156.098-.092c1.698-1.543 3.8-1.7 6.086-.64l.265.128c2.195 1.1 4.396 3.173 6.58 5.836.319.39.263.966-.126 1.286-.389.32-.963.264-1.282-.126-2.034-2.48-4.078-4.406-5.987-5.362-2.347-1.177-4.118-.728-5.55 1.87-.484.88-1.823.445-1.702-.552.309-2.53-1.2-4.234-3.445-3.685-1.486.363-2.683 1.587-4.002 3.812l-.257.44-.798 1.432c-.246.44-.802.597-1.24.35-.44-.246-.596-.802-.35-1.242l.512-.924c.213-.382.389-.69.566-.99.144-.243.288-.477.432-.701l.155.201c-2.897-3.82-5.636-5.053-8.677-3.976-.625.221-1.269-.279-1.211-.94.327-3.783-2.203-6.156-6.808-6.557-4.604-.401-7.504 1.5-7.831 5.283-.064.73-.918 1.092-1.485.628-3.016-2.468-5.745-2.478-8.932.221-.428.362-1.076.256-1.367-.223-1.405-2.314-3.214-4.061-4.827-4.704-1.516-.604-2.627-.189-3.367 1.426-.291.636-1.158.721-1.567.154-2.677-3.713-5.177-4.342-6.607-1.89-.233.398-.725.56-1.148.377-5.558-2.404-8.587-.134-7.563 5.099.211 1.081-1.314 1.544-1.736.526-1.194-2.881-6.871-4.611-8.275-2.93-.95 1.084-.673 3.056 1.107 5.879.27.426.143.99-.283 1.26-.425.27-.988.142-1.257-.284-2.162-3.427-2.553-6.214-.95-8.045 1.777-2.128 6.328-1.409 9.197.785l.215.169.002-.033c.401-4.382 4.094-6.37 9.357-4.465l.2.076.104-.136c2.099-2.624 5.295-1.93 8.155 1.332l.126.148.103-.125c1.162-1.37 2.807-1.747 4.613-1.113l.247.092c1.722.686 3.491 2.248 4.962 4.314l.191.276.017-.012c2.163-1.578 4.279-2.122 6.373-1.682l-.006-.895c-.031-2.507-.17-4.889-.446-7.413l-.239.393c-.264.43-.826.562-1.254.297-.428-.265-.56-.828-.296-1.257 3.858-6.262 5.005-12.41 4-17.588-.596-3.073-1.965-5.96-3.981-8.424l-1.524-1.853c-.828-1.002-1.616-1.945-2.372-2.838-.414-.055-.748-.394-.782-.83l-.008-.098c-2.787-3.255-5.153-5.817-7.567-8.133l-.379-.36c-2.496-2.363-4.63-3.999-6.305-4.782-1.404-.657-2.292-.673-2.852-.088 1.486.645 2.988 2.041 3.882 4.04.205.46 0 1-.46 1.207-.458.206-.998 0-1.203-.46-.624-1.394-1.518-2.353-2.542-2.897-.744-.395-1.496-.515-1.798-.416-.399.132-.635.38-.794.773l-.053.138c-.049.14-.076.265-.128.58 2.061.293 4.374 1.65 5.546 3.307.291.412.194.982-.216 1.274-.41.291-.98.194-1.27-.217-.966-1.365-3.12-2.54-4.75-2.593-.13-.005-.319.063-.376.122-.124.127-.232.33-.321.608-.14.437.206 1.573.634 2.2.06-.023.123-.043.19-.06 1.371-.355 2.916.481 4.2 1.994.326.385.28.961-.104 1.288-.384.327-.959.28-1.285-.104-.88-1.038-1.821-1.547-2.356-1.41-.02.006-.058.081-.07.242-.062.904.34 1.732 1.247 2.817.516.619 1.057 1.215 1.62 1.788l.026.029.293.313c1.37 1.512 5.9 6.815 10.74 12.58.1.118.164.253.194.394 2.671 3.655 4.21 8.133 4.326 12.667.013.504-.385.923-.888.936-.503.013-.921-.385-.934-.89-.118-4.585-1.825-9.12-4.759-12.64-.068-.08-.119-.17-.154-.264l-2.611-3.099c-2.154-2.545-4.084-4.807-5.461-6.401.012.071.014.146.007.22-.04.461-.416.812-.864.832l-.065-.002-7.684 1.816c-.059.014-.117.022-.176.024l.039.149 1.187 4.825c2.01 8.361 2.697 12.584 2.537 17.631l-.013.354-.019.484-.689.425c-2.678 1.605-5.098 2.183-9.85 2.612l-.468.041-3.531.287-.01-.982c-.065-6.267-.656-12.531-1.758-18.716-.21.284-.5.378-.846.396l-3.063-.007c-.054 1.12-.144 2.237-.27 3.35.775.062 1.559.03 2.328-.09.07-.426.138-.852.203-1.277.07-.457.467-.783.916-.775l.123.01c.498.077.839.543.763 1.042l-.139.875c.178.117.315.297.376.518.135.486-.15.99-.634 1.125l-.017.004c-.228 1.296-.476 2.589-.746 3.876l.069-.009.01-.026c.054-.117.132-.223.233-.31l.109-.08c1.02-.644 1.943.58 1.497 1.451-.229.443-.555.594-1.012.681-.434.085-.874.14-1.315.166-.114.508-.233 1.016-.354 1.523l2.1-.025c.504-.005.917.4.922.904.006.504-.398.918-.9.923l-7.153.082c-.125 0-.213-.005-.331-.03-.227-.047-.439-.154-.614-.35-.36-.402-.344-.771-.202-1.219 1.782-5.63 2.53-11.59 2.194-17.487-.029-.504.355-.936.858-.964.502-.029.933.356.961.86.065 1.14.091 2.284.078 3.426l2.364.007.033-.032c.294-.26.747-.289 1.099-.123l.073.039c-1.152-5.985-2.785-11.89-4.885-17.644l-1.387-.015c-.34-.005-.675-.01-1.006-.017.675.763 1.025 1.764 1.267 3.16.063.367.119.735.166 1.105.33-.032.66-.074.993-.127.497-.08.964.26 1.044.757.08.498-.259.967-.756 1.047-.375.06-.743.107-1.11.142.066 1.119.06 2.243-.016 3.362l-.062.748-.002.127.092.06c.22.163.361.422.369.709l-.005.124c-.005.043-.013.086-.023.127 1.063.065 2.13.115 3.2.15.502.016.897.438.88.942-.015.504-.436.9-.939.884-10.508-.337-20.804-2.17-30.1-5.395-.057-.02-.112-.045-.163-.075.233.215.344.546.266.877-2.769 11.647-4.56 23.136-5.311 34.432-.013.194-.086.37-.199.51 1.486.853 2.609 2.372 3.227 4.455l.032.118.164-.134c1.823-1.442 3.824-1.344 5.911.37l.26.223.068-.157c.578-1.328 1.257-2.446 1.99-3.262l.022.587c-.215-4.688.205-9.403 1.246-13.979.112-.492.6-.8 1.09-.687.491.112.798.601.686 1.093-.869 3.823-1.29 7.747-1.252 11.668 1.161-.442 2.258-.088 3.124.966l.064.082.015-.025c.724-1.278 1.528-2.16 2.398-2.57l.202-.086c1.244-.477 2.387.009 3.288 1.252l.15.217.077-.041c3.606-1.86 6.334.05 7.084 4.176l.024.144.14-.143c1.984-1.987 5-2.61 6.483-.604l.117.168c1.226 1.808 1.166 4.56-.087 8.06-.17.475-.692.721-1.166.55-.473-.17-.72-.693-.55-1.168 1.077-3.004 1.125-5.193.286-6.43-.978-1.501-4.479.129-5.09 3.04-.232 1.108-1.869.888-1.801-.242.332-5.563-1.893-7.793-5.349-5.486-.462.308-1.088.135-1.327-.367-.603-1.264-1.132-1.61-1.628-1.42-.704.27-1.58 1.424-2.37 3.306-.316.756-1.39.742-1.688-.022-.648-1.66-1.267-1.98-2.055-1.496-.105.064-.212.142-.32.23-.08.315-.322.564-.635.652-.732.894-1.456 2.269-2.024 3.93-.226.66-1.078.834-1.542.313-2.371-2.663-3.99-2.643-5.816-.246-.492.647-1.519.374-1.627-.432-.54-4.028-2.69-5.928-5.738-5.518-3.049.41-4.622 2.812-4.082 6.84.097.724-.649 1.263-1.303.943-1.983-.971-3.636.177-5.355 4.034.426.796.882 1.719 1.387 2.779.217.455.025 1-.429 1.218-.454.217-.998.024-1.215-.43l-.528-1.09c-1.857-3.764-2.897-5.023-4.151-4.854-.924.124-1.341 1.315-.984 3.98.138 1.027-1.266 1.454-1.72.523-.967-1.976-1.934-2.715-3.07-2.561-.877.118-1.512.678-2.297 2.034l-.202.361c-.138.254-.285.538-.454.877l-1.384 2.838c-.426.859-1.715.563-1.727-.395-.089-7.264-1.777-11.88-4.526-14.527l-.106-.1-.05.088c-.225.417-.409.859-.554 1.324l-.102.353c-.441 1.672-.39 3.49-.033 5.22.103.501.205.866.268 1.052.306.903-.801 1.613-1.491.955l-.854-.826-.292-.287c-.859-.844-1.717-1.709-2.52-2.546l-.574-.605-.632-.682c-.2-.219-.39-.43-.57-.634l-.516-.598-.005.024c-.768 3.553-.178 9.34 1.057 11.548l.126.209c.275.422.156.988-.265 1.264-.422.275-.986.156-1.261-.266-1.873-2.878-2.567-11.338-.806-15.095.304-.647 1.198-.71 1.588-.11.443.68 1.358 1.754 2.611 3.087l.562.593c.394.41.803.83 1.219 1.25l.312.312-.013-.13c-.106-1.248-.052-2.512.217-3.743l.11-.46c.311-1.176.82-2.257 1.547-3.213.305-.4.877-.478 1.277-.172 3.153 2.412 5.256 6.58 5.896 12.947l.017.196.102-.197c.12-.231.232-.44.342-.636l.11-.192c1.039-1.796 2.086-2.721 3.63-2.929 1.185-.16 2.225.184 3.139 1.005l.036.034.013-.095c.256-1.593 1.029-2.589 2.38-2.851l.206-.034c1.66-.224 2.789.402 4.065 2.299 1.622-3.12 3.527-4.612 5.74-4.282l.113.018-.004-.178c-.035-3.99 2.005-6.669 5.492-7.257l.27-.04c.866-.117 1.682-.09 2.439.07l.101.023c.76-11.4 2.566-22.99 5.357-34.733.026-.11.071-.21.13-.3-.062-.044-.12-.097-.172-.158-1.073-1.267-1.593-2.993-1.584-4.858.006-1.384.224-2.548.783-4.725l.197-.73c.449-1.592.892-2.59 1.646-3.421l-.013.32c.2-4.821.47-9.218.831-13.37-8.745 1.156-18.342 3.857-24.943 7.066-.452.22-.998.031-1.217-.423-.22-.454-.03-1 .422-1.22 6.877-3.344 16.852-6.136 25.909-7.287.202-2.113.43-4.169.686-6.19-10.543.805-23.805 3.05-29.727 5.445-.467.189-.998-.037-1.186-.505-.188-.468.038-1 .504-1.19 6.182-2.498 19.86-4.808 30.654-5.6.181-1.335.377-2.658.586-3.978-4.641-.392-9.628-.395-14.807-.072l-1.084.073c-5.411.387-10.595 1.113-12.877 1.617-.492.108-.978-.204-1.086-.696-.108-.493.203-.98.694-1.089l.512-.107c2.745-.549 8.212-1.276 13.728-1.621 5.316-.332 10.438-.326 15.217.087 1.498-8.869 3.645-17.704 6.707-28.753.168-.604.88-.863 1.395-.507l.464.33c2.148 1.565 5.476 4.488 9.246 8.036.946-2.75 2.525-6.13 4.268-8.73 2.742-4.09 5.777-6.264 8.997-5.64l.03-.08c.032-.085.075-.162.127-.23-.322-.278-.625-.635-.821-.952-.458-.734-.67-1.783-.702-3.004-.028-1.062.12-1.92.632-2.439l.115-.106.125-.094c.643-.434 1.394-.192 1.866.39zm1.425 109.736l.005.105c.036.725.065 1.45.088 2.174l.028 1.087.003.248 1.069-.083c1.293-.106 2.41-.216 3.398-.347l-.375-3.14c-1.405 0-2.81-.014-4.216-.044zm11.095-.396l-.041.05c-.16.17-.384.28-.636.288-1.454.047-2.908.078-4.363.093l.337 2.86c1.73-.337 3.046-.802 4.362-1.527l.23-.13.095-.056.014-.61c.005-.325.005-.647.002-.968zm-.597-6.423l-.041.036c-.169.137-.372.238-.593.278l-.154.017-4.44.22c.186 1.423.373 2.912.564 4.474 1.509-.01 3.017-.041 4.525-.09.278-.01.53.107.704.298-.07-1.645-.253-3.323-.565-5.233zm-19.324 3.086l-.147.577c-.065.245-.131.49-.2.734l-.234.809 2.316-.027.287-1.195.094-.408c-.721-.086-1.431-.25-2.116-.49zm12.27-2.447l-3.904.194c.143 1.384.26 2.77.353 4.157h.028c1.359.03 2.718.045 4.078.046l-.003-.02c-.187-1.527-.37-2.983-.552-4.377zm-9.06-2.391l-.166.017c-.69.063-1.387.065-2.078.006-.152 1.012-.335 2.02-.548 3.023l-.139-.053c.714.284 1.467.466 2.232.543.252-1.175.485-2.354.7-3.536zm8.15-4.104l-.575.095c-1.027.178-2.045.412-3.046.701-.044.013-.087.022-.13.028.208 1.345.393 2.694.554 4.045l3.865-.192c-.223-1.644-.444-3.199-.668-4.677zm6.714-.331l-.029.012c-.124.05-.262.074-.406.064-1.487-.104-2.983-.09-4.469.04.23 1.518.457 3.114.685 4.803l4.143-.204.054-.074c.149-.18.366-.302.61-.327l.123-.004c.071.003.141.012.21.028-.25-1.31-.556-2.74-.92-4.338zm-7.67-5.417l-.561.102c-1.1.206-2.194.438-3.282.697.275 1.32.526 2.643.753 3.968l-.08.022c1.261-.365 2.546-.647 3.845-.845-.22-1.376-.444-2.687-.675-3.944zm6.141-.944l-.06.04c-.115.07-.247.116-.39.13-1.301.121-2.6.28-3.891.476.234 1.283.462 2.618.686 4.022 1.586-.146 3.185-.166 4.776-.06l-.094-.399-.466-1.931c-.188-.77-.367-1.5-.56-2.278zm-7.417-5.186l-.438.11c-1.176.31-2.326.721-3.431 1.23.328 1.264.634 2.532.92 3.805l-.893.216c1.58-.397 3.174-.74 4.778-1.027-.298-1.509-.608-2.945-.936-4.334zm4.221-6.253c-1.284.172-2.565.368-3.842.587.345 1.162.668 2.335.975 3.537 1.115-.178 2.244-.271 3.374-.279.504-.003.914.403.918.908.003.504-.402.916-.905.92-.987.006-1.974.084-2.95.23.332 1.407.645 2.86.945 4.387 1.348-.207 2.703-.373 4.061-.5.07-.007.14-.005.207.004l-2.505-9.878c-.085.042-.179.07-.278.084zm-20.222 3.228l.106 4.57c.004.145-.027.283-.084.406 1.495.188 3.001.343 4.515.467-.121-.305-.16-.669-.14-1.052l.013-.168c.122-1.268.144-2.545.067-3.815-1.254-.015-2.653-.154-4.477-.408zm-5.963-.936l-.007.31c-.013 1.561.094 3.124.322 4.668l.005.07c1.303.237 2.617.449 3.94.636l-.001-.01-.011-.124-.117-4.884-.234-.035c-1.298-.2-2.586-.408-3.897-.63zm31.726.207l-2.613.446 1.246 4.917c.061-.03.127-.054.196-.07l2.388-.565-.901-3.543c-.11-.421-.214-.815-.316-1.185zm-36.634 2.87c.125.292.087.612-.074.86 1.129.269 2.269.52 3.418.75l.076.558c-.271-1.84-.38-3.703-.33-5.562-.873-.154-1.766-.317-2.682-.488l-1.273-.242c.022 1.415.31 2.826.865 4.125zm39.86-4.036l-.014.044c-.025.061-.055.121-.092.179-.252.388-.534.5-.982.578l-.333.056.154.573.352 1.361.68 2.683 3.56-.84c.106-.025.213-.038.321-.04l.162.006c.063.005.125.018.183.035-.739-.848-1.242-1.414-1.43-1.604l-.003-.003c-.598-.609-1.173-1.242-1.72-1.898-.325-.389-.605-.762-.838-1.13zm-14.414-.417l-.864.165c-1.086.216-2.17.449-3.25.699.423 1.337.82 2.679 1.193 4.027 1.26-.56 2.57-1.005 3.91-1.328-.311-1.21-.64-2.393-.99-3.563zm-30.671 3.895l.012.037c1.127.338 2.268.655 3.42.953l.118.288c-.7-1.636-1.037-3.418-1.012-5.194l-2.917-.583c-.17 1.507-.05 3.047.379 4.499zm-5.686-4.337c-.006 1.386.348 2.633 1.038 3.528.23-.317.646-.46 1.033-.325.527.183 1.059.362 1.593.536-.28-1.4-.326-2.843-.15-4.258l-3.437-.685c-.051.415-.075.802-.077 1.204zm21.639-3.168l.098 4.07c1.796.256 3.155.4 4.34.428-.037-.284-.08-.568-.13-.85-.219-1.264-.52-2.023-1.05-2.48-.306-.263-.394-.686-.248-1.04-1.045-.032-2.046-.074-3.01-.128zm23.73-.511l-.214.04c-.566.099-1.134.182-1.705.248l.107.434.925 3.653 2.546-.437c-.47-1.486-.928-2.554-1.56-3.677-.048-.084-.08-.172-.099-.261zm-29.067.044l.026.103c.02.108.02.221 0 .335-.197 1.05-.338 2.111-.422 3.176 1.334.23 2.642.442 3.957.644l.043.007-.089-3.776c-.001-.048.001-.095.007-.14-1.23-.093-2.4-.208-3.522-.349zm-4.585-60.98l-.713 2.617c-2.473 9.172-4.273 16.856-5.579 24.553 2.75.303 5.374.749 7.844 1.35.489.12.789.614.67 1.104-.119.49-.611.79-1.1.672-2.42-.59-5-1.026-7.71-1.321-.196 1.222-.378 2.446-.55 3.68 3.312-.194 6.27-.227 8.543-.057.502.038.878.476.84.98-.037.503-.474.88-.976.842-2.279-.17-5.284-.129-8.652.079-.258 1.995-.487 4.022-.69 6.105 2.639-.273 5.172-.395 7.496-.339.504.013.901.431.89.936-.013.504-.43.903-.934.89-2.353-.056-4.933.076-7.624.367-.344 3.863-.606 7.936-.804 12.369l-.02.461c.123.002.247.028.366.081 7.394 3.343 13.667 4.328 25.245 4.453l.41-.368c3.725-3.347 9.367-4.004 13.512-1.46l.262.167.3.197.265 1.075.508-.057c1.33-.168 2.649-.43 3.94-.785.485-.134.986.152 1.12.639.132.486-.153.989-.639 1.122-.247.068-.496.133-.745.195l-.137-.248c.74 1.315 1.253 2.534 1.787 4.265l.066-.01.018-.04c.085-.175.226-.323.409-.414l.114-.048c.241-.083.46-.084.65-.027-.141-.49-.195-.995-.157-1.536.009-.134.026-.266.052-.395l.081.088c-.944-.963-1.651-3.059-1.26-4.276.168-.527.405-.971.753-1.327.14-.144.307-.267.49-.368.009-.087.022-.183.04-.29l.066-.406c.078-.454.123-.604.264-.955.348-.862.968-1.511 1.915-1.823.058-.02.116-.036.175-.051l.223.515c-.449-1.007-.868-2.093-1.241-3.22l-.232-.722c-.979-3.143-1.433-5.959-1.19-7.82-.597.102-1.212.155-1.839.155-4.305 0-8.032-2.485-9.83-6.102-.957 1.179-2.267 2.114-3.756 2.652-.474.172-.996-.074-1.167-.549-.17-.474.075-.998.548-1.169 1.56-.564 2.865-1.675 3.59-3.026-.237-.897-.362-1.839-.362-2.81 0-6.077 4.915-11.004 10.977-11.004 5.127 0 9.434 3.524 10.64 8.287.135-.13.312-.218.513-.243 2.368-.294 4.991-.52 7.755-.677-.26-1.537-.527-3.06-.8-4.571l-.386-2.118c-.967-5.22-1.95-9.987-2.824-13.778l-.287-1.227c-.387-1.626-.735-2.977-1.02-3.973l-.213-.708c-.043-.137-.084-.26-.122-.372l-.062-.176-.163.078c-.422.216-.985.606-1.675 1.158l-.43.351c-.81.673-1.74 1.51-2.923 2.627l-1.816 1.736-3.086 2.966c-3.442 3.28-4.012 3.635-4.888 3.585l-.12-.009-.203-.015c-.136 1.273-.464 2.282-1.013 3.141-.012.058-.031.116-.057.173-.081.183-.215.325-.375.418-.599.725-1.388 1.348-2.39 1.958-1.862 1.134-3.893 1.531-6.48 1.478-1.99-.038-3.482-.334-4.897-1.127-2.413-1.353-3.638-3.396-3.76-5.902h.13c-1.381.004-1.734-.054-2.047-.335l-2-1.95c-.64-.621-1.275-1.23-1.9-1.825-.09-.057-.167-.132-.23-.216-3.527-3.353-6.727-6.222-8.979-7.998l-.414-.322zm-.774 60.033l.013.022c.104.23.114.5.004.749-.386.874-.65 1.801-.791 2.747l.229.045c1.28.244 2.51.47 3.707.684.089-1.073.233-2.14.43-3.198.024-.122.07-.233.133-.33-1.29-.198-2.523-.436-3.725-.719zm23.394-1.51l-.167.038c-1.233.303-2.42.84-3.475 1.6l-.26.195-.08.063.205.552c.39 1.064.763 2.134 1.12 3.208l-.48.11c1.53-.364 3.068-.694 4.612-.99-.447-1.395-.929-2.788-1.453-4.208-.07-.19-.074-.388-.022-.569zm33.117-29.758l-.485.028c-2.619.155-5.104.37-7.353.65-.165.02-.325-.004-.467-.065.045.397.068.802.068 1.212 0 4.062-2.196 7.61-5.463 9.517 1.433 1.42 2.884 4.278 4.043 7.774.313.945.584 1.886.805 2.797l.157.678.03.139.14.067c1.835.92 4.012 2.61 6.513 4.977 2.11 1.997 4.154 4.148 6.435 6.739-.623-7.107-1.457-14.363-2.45-21.547-3.62-.802-7.073-1.348-10-1.596-.501-.042-.874-.484-.831-.987.039-.46.412-.813.86-.835l.124.002c2.83.24 6.119.744 9.575 1.484-.167-1.179-.338-2.353-.514-3.525-.868.01-1.76.025-2.68.046l-2.564.066c-.503.013-.92-.385-.934-.89-.012-.504.385-.923.888-.936l3.479-.086c.52-.01 1.03-.018 1.533-.024-.293-1.907-.596-3.803-.91-5.685zm-60.509 30.126l.023.043c.114.265.101.58-.062.844-.554.896-.973 1.873-1.254 2.89l2.726.537c.168-1.08.473-2.138.915-3.14.069-.155.174-.28.302-.373-.892-.238-1.772-.505-2.65-.801zm29.096-.607l-.056.004c.033.052.06.109.083.17l.35.958c.428 1.194.827 2.372 1.203 3.553 1.377-.24 2.758-.453 4.142-.639l.084-.006-.7-2.822-.292-.166c-1.465-.798-3.14-1.138-4.814-1.052zm-33.894-1.313l-.085.098c-.517.632-.86 1.487-1.247 2.931l-.09.34c-.121.473-.225.894-.314 1.276l-.026-.006 3.478.7c.324-1.23.825-2.412 1.494-3.495.098-.157.235-.275.392-.347-1.15-.423-2.303-.9-3.485-1.433-.04-.019-.08-.04-.117-.064zm49.853-16.028c-.476.16-.206 4.132 1.23 8.462.234.71.488 1.401.756 2.064.737-.63 1.68-.832 2.77-.656-.193-.768-.424-1.56-.688-2.355-1.436-4.329-3.592-7.673-4.068-7.515zm-3.76-19.53c-5.057 0-9.156 4.109-9.156 9.177 0 .784.098 1.545.283 2.27.13.174.194.39.179.61 1.203 3.657 4.64 6.297 8.693 6.297 5.056 0 9.155-4.109 9.155-9.177s-4.099-9.177-9.155-9.177zm.038 4.128l.123.016c.288.059.516.247.637.492l.027.068.168.121c2.02 1.564 2.265 5.067.425 6.884l-.179.166c-.462.4-1.179.24-1.428-.32-.922-2.071-1.179-4.458-.724-6.698.092-.453.504-.76.951-.73zm-21.083 2.077c.498.077.838.544.762 1.042-.077.499-.543.84-1.04.763-1.36-.21-2.838.42-3.627 1.55-.29.414-.858.514-1.27.224-.412-.29-.512-.859-.223-1.272 1.188-1.7 3.352-2.624 5.398-2.307zm8.248-12.199l-1.494.082c-1.74.087-2.746.09-3.914-.005.33.414.74.79 1.235 1.126l.276.178.26.153c1.057.592 2.214.84 3.81.89l-.173-2.424zm2.27-.102l-.449.014.18 2.479c1.513-.117 2.76-.478 3.904-1.174.455-.278.85-.549 1.19-.83-1.364-.386-2.92-.527-4.825-.49zm3.784-2.948h-.204c-.572.002-1.18.006-1.821.014l-2.417.043.078 1.079.476-.013c2.446-.054 4.413.164 6.179.797.193-.383.333-.81.43-1.3l.042-.243.002-.015-.981-.147c-.594-.082-1.19-.154-1.784-.215zm-6.265.1l-6.062.154c-.319.045-.638.094-.956.146l.77-.118.006.095c.035.452.117.88.25 1.281.181-.244.482-.392.809-.363l.446.034c.956.064 1.877.053 3.39-.023l1.427-.081-.08-1.125zm-12.325-5.08l-.028.093c.734.7 1.48 1.42 2.235 2.153l1.172 1.147.317.02.373.01c.208.003.447.004.72.003l1.354-.02c4.174-.59 8.37-.674 12.544-.253 1.904.002 3.428.045 4.621.138l.278.023c.197.017 1.298-.923 3.883-3.372l-.088-.303c-2.074-6.74-6.475-13.375-10.558-13.541.159.591.412 1.254.806 2.169l.53 1.218c.213.498.351.848.485 1.227l.057.164.069.204c1.185-.034 1.882-.167 2.55-.504.449-.227.997-.046 1.223.404.227.45.046 1-.403 1.227-.865.437-1.682.621-2.888.683.245 1.221.352 2.523.366 4.19 1.368-.042 2.576-.227 3.783-.575.483-.14.988.14 1.127.626.14.484-.14.99-.624 1.13-1.392.401-2.762.608-4.302.65-.014.543-.032 1.121-.056 1.742-.019.504-.442.897-.945.878-.503-.02-.895-.443-.876-.948l.046-1.401.008-.29c-1.018-.047-2.124-.149-3.358-.3l-1.516-.2-2.827-.393-.493-.064c-.08.837-.039 1.556.13 2.277.114.492-.19.983-.68 1.098-.49.114-.98-.19-1.095-.682-.221-.949-.274-1.858-.17-2.887-1.487-.135-2.98-.2-4.472-.194-.503.002-.913-.405-.914-.91-.002-.504.404-.915.907-.917 1.597-.006 3.194.065 4.785.213.137-.611.314-1.277.528-2.017l.348-1.176c-1.082-.038-2.165-.081-3.248-.13-.503-.023-.892-.45-.869-.955.023-.503.449-.893.952-.87 1.242.056 2.483.105 3.723.146.508-1.62 1.049-3.229 1.62-4.827-4.273-.36-8.927 6.661-11.13 13.895zm10.838-7.2l-.077.25c-.138.458-.274.916-.407 1.375-.182.63-.333 1.196-.454 1.714l.408.047 3.265.455c1.611.219 2.99.363 4.221.421-.016-1.69-.135-2.96-.406-4.15l.414.004c-2.317-.011-4.639-.05-6.964-.116zm3.524-7.843c-.262.182-.604.216-.899.079l-.19.52c-.008.063-.023.127-.045.19-.026.075-.061.145-.103.208l.388-1.054c-.753 2.012-1.457 4.04-2.11 6.085 1.815.051 3.626.083 5.435.098l-.02-.055c-.13-.344-.287-.718-.535-1.287l-.173-.396c-.566-1.292-.908-2.172-1.108-2.998-.323-.047-.612-.27-.728-.601-.096-.273-.054-.561.088-.789zM137.091 54c.296 0 .295.459 0 .459s-.294-.459 0-.459z" transform="translate(-53 -433) translate(16 292) translate(34 141)"/>
                </g>
            </g>
        </g>
    </g>
</svg>
