<svg xmlns="http://www.w3.org/2000/svg" viewBox="0 0 192 192">
    <g fill="none" fill-rule="evenodd">
        <g>
            <g>
                <path fill="#F16F5B" d="M93.1 7h8.408c19.3 0 34.486 3.62 47.197 10.418 12.711 6.798 22.687 16.774 29.485 29.485 6.798 12.711 10.418 27.898 10.418 47.197v4.128c0 19.3-3.62 34.486-10.418 47.197-6.798 12.711-16.774 22.687-29.485 29.485-12.711 6.798-27.898 10.418-47.197 10.418H93.1c-19.3 0-34.486-3.62-47.197-10.418-12.711-6.798-22.687-16.774-29.485-29.485C9.62 132.714 6 117.528 6 98.228V94.1c0-19.3 3.62-34.486 10.418-47.197 6.798-12.711 16.774-22.687 29.485-29.485C58.614 10.62 73.801 7 93.1 7z" transform="translate(-92 -130) translate(90 130) rotate(4 97.304 96.164)"/>
                <path fill="#FFF" d="M126.942 120.118L108.824 102l18.118-18.117c4.077-4.078 4.077-10.75 0-14.827-4.075-4.075-10.747-4.075-14.824 0L94 87.176l-18.12-18.12c-4.075-4.075-10.747-4.075-14.822.003-4.074 4.075-4.077 10.746 0 14.821L79.176 102l-18.118 18.118c-4.077 4.075-4.077 10.75 0 14.824 4.075 4.077 10.747 4.077 14.824 0L94 116.824l18.118 18.118c4.077 4.077 10.749 4.074 14.824 0 4.077-4.078 4.077-10.747 0-14.824z" transform="translate(-92 -130) translate(90 130)"/>
                <path stroke="#42160F" stroke-width="3.857" d="M129.942 114.118L111.824 96l18.118-18.117c4.077-4.078 4.077-10.75 0-14.827-4.075-4.075-10.747-4.075-14.824 0L97 81.176l-18.12-18.12c-4.075-4.075-10.747-4.075-14.822.003-4.074 4.075-4.077 10.746 0 14.821L82.176 96l-18.118 18.118c-4.077 4.075-4.077 10.75 0 14.824 4.075 4.077 10.747 4.077 14.824 0L97 110.824l18.118 18.118c4.077 4.077 10.749 4.074 14.824 0 4.077-4.078 4.077-10.747 0-14.824z" transform="translate(-92 -130) translate(90 130)"/>
            </g>
        </g>
    </g>
</svg>
