<svg xmlns="http://www.w3.org/2000/svg" viewBox="0 0 257 256">
    <g fill="none" fill-rule="evenodd">
        <g>
            <g>
                <path fill="#FFD370" d="M124.467 9.333h11.21c25.733 0 45.982 4.827 62.93 13.891s30.249 22.365 39.313 39.313c9.064 16.949 13.89 37.197 13.89 62.93v5.504c0 25.732-4.826 45.981-13.89 62.93-9.064 16.947-22.365 30.248-39.313 39.312-16.948 9.064-37.197 13.891-62.93 13.891h-11.21c-25.733 0-45.981-4.827-62.93-13.89-16.948-9.065-30.249-22.366-39.313-39.314-9.064-16.948-13.89-37.197-13.89-62.93v-5.503c0-25.733 4.826-45.981 13.89-62.93C31.288 45.59 44.59 32.288 61.537 23.224c16.949-9.064 37.197-13.89 62.93-13.89z" transform="translate(-59 -270) translate(56.5 270) rotate(4 130.072 128.219)"/>
                <path fill="#FFF" d="M121.404 65.363c.99-.217 1.718.628 2.182 2.536.388-.502.86-.726 1.414-.67 1.672.497.943 3.213-.646 5.057 5.056-1.512 9.479 2.862 13.27 13.123 1.232-1.15 7.34-7.87 9.554-7.296 2.213.574 6.606 19.486 11.155 63.48 3.134 3.449 13.232 12.038 5.953 28.543.339 2.317.54 4.88.607 7.691.744.199 1.485.53 2.225.99l.089.057.053-.194c1.009-3.453 4.223-5.224 8.607-4.938l.323.025c4.658.405 7.685 2.831 7.978 6.646l.01.18.232-.041c2.94-.482 5.653.908 8.245 4.092.998-1.2 2.065-1.953 3.383-2.275 2.486-.608 4.432.68 5.126 2.782l.045.147.093-.087c1.598-1.452 3.576-1.6 5.728-.602l.25.12c4.254 2.319 6.323 5.631 6.207 9.938-8.948 1.33-165.845 2.663-168.718 0-1.8-2.713-2.47-11.061-.812-14.597.286-.61 1.127-.668 1.494-.105.385.592 1.149 1.498 2.191 2.622l.796.842.566.585.875.886-.013-.123c-.1-1.174-.048-2.364.204-3.522l.105-.433c.292-1.108.77-2.124 1.455-3.024.287-.378.826-.45 1.202-.162 2.968 2.27 4.947 6.193 5.55 12.186l.015.183.314-.594.208-.37c.978-1.69 1.963-2.561 3.416-2.757 1.022-.138 1.93.123 2.737.763l.252.215.012-.09c.24-1.499.968-2.436 2.24-2.683l.194-.032c1.56-.21 2.624.378 3.825 2.163 1.527-2.936 3.32-4.34 5.403-4.03l.106.018-.004-.168c-.033-3.754 1.887-6.276 5.169-6.83l.255-.038c.432-.058.851-.078 1.256-.062.876-10.994 2.519-21.033 4.928-30.115-2.453-3.126-2.172-7.48.843-13.063-.323-18.328 7.81-54.352 9.396-54.703 1.587-.352 4.494 2.996 10.008 7.955 1.636-4.575 6.198-14.739 12.449-13.53.09-.168.153-.27.189-.31-1.43-.744-2.443-5.886-.19-6.38z" transform="translate(-59 -270) translate(56.5 270)"/>
                <path fill="#2E2411" d="M126.742 59.242c.254.31.417.676.6 1.226.08.24.16.494.237.755.127-.166.273-.307.445-.427.63-.444 1.493-.256 1.805.553.15.393.14.807.042 1.291-.175.865-.506 1.64-.955 2.202l-.146.173-.08.086-.306.31c-.128.13-.195.206-.257.293.06-.041.127-.075.199-.1l.072-.025c.134-.241.38-.414.675-.44.22-.019.429.047.592.17 4.985-.442 9.633 6.263 11.944 13.427l1.628-1.567c5.195-4.997 7.013-6.45 8.376-5.574 1.118.72 3.683 12.21 6.103 26.844 11.187-.512 24.315.091 31.356 1.67.462.104.753.564.65 1.027-.104.463-.562.755-1.025.651-6.838-1.534-19.702-2.128-30.702-1.639.287 1.771.57 3.584.849 5.423 7.896-.015 13.793.58 20.269 2.394 2.934.822 5.714 1.87 8.33 3.168.424.21.598.727.388 1.152-.21.426-.724.6-1.149.39-2.517-1.25-5.196-2.26-8.031-3.054-6.222-1.742-11.929-2.332-19.55-2.33.182 1.23.36 2.47.536 3.718 8.234 1.928 17.146 5.196 22.486 9.346.375.291.443.831.153 1.206-.29.376-.83.444-1.203.153-4.973-3.865-13.341-6.975-21.181-8.873 1.022 7.458 1.901 15.084 2.473 22.084 1.25 1.468 2.592 3.084 4.07 4.89 2.077 2.538 3.49 5.517 4.106 8.692.865 4.461.18 9.578-2.359 14.818.51 3.664.726 6.875.735 10.414 0 .194-.064.374-.172.518.347.158.693.345 1.04.56l.088.057.053-.194c1.01-3.453 4.224-5.224 8.608-4.938l.323.025c4.658.405 7.684 2.831 7.977 6.646l.01.18.232-.041c2.94-.482 5.653.908 8.245 4.091.999-1.2 2.066-1.952 3.383-2.274 2.487-.608 4.433.68 5.126 2.782l.046.147.092-.087c1.598-1.452 3.577-1.6 5.729-.602l.249.12c2.066 1.035 4.137 2.987 6.192 5.493.301.367.248.909-.118 1.21-.366.302-.906.249-1.207-.118-1.914-2.334-3.838-4.147-5.634-5.047-2.21-1.107-3.876-.685-5.224 1.76-.456.828-1.716.419-1.601-.52.29-2.38-1.13-3.984-3.243-3.467-1.398.341-2.525 1.493-3.767 3.587l-.241.415-.752 1.347c-.231.415-.754.562-1.167.33-.413-.232-.56-.756-.33-1.17l.483-.87c.2-.359.366-.649.533-.93.135-.23.27-.45.406-.66l.146.189c-2.726-3.595-5.305-4.756-8.166-3.743-.588.209-1.195-.262-1.14-.885.308-3.56-2.073-5.793-6.408-6.17-4.333-.378-7.062 1.411-7.37 4.971-.06.688-.864 1.029-1.397.592-2.839-2.323-5.408-2.333-8.408.208-.402.34-1.012.24-1.286-.21-1.322-2.178-3.025-3.823-4.543-4.427-1.426-.569-2.473-.178-3.169 1.342-.274.598-1.09.679-1.474.145-2.52-3.495-4.873-4.087-6.22-1.78-.218.375-.682.528-1.08.356-5.23-2.263-8.082-.127-7.118 4.799.2 1.017-1.237 1.453-1.634.495-1.123-2.712-6.467-4.34-7.788-2.759-.894 1.022-.634 2.878 1.042 5.534.254.401.134.932-.266 1.186-.4.254-.93.134-1.183-.267-2.035-3.226-2.403-5.848-.895-7.571 1.673-2.004 5.956-1.327 8.657.738l.202.159.002-.03c.378-4.125 3.853-5.996 8.806-4.203l.188.07.099-.126c1.975-2.47 4.983-1.816 7.674 1.253l.12.14.096-.119c1.094-1.289 2.642-1.643 4.342-1.047l.232.087c1.621.645 3.286 2.115 4.67 4.06l.18.26.017-.011c2.035-1.486 4.027-1.998 5.998-1.583l-.006-.843c-.03-2.36-.16-4.602-.42-6.978l-.225.37c-.249.405-.777.53-1.18.28-.403-.25-.528-.779-.28-1.183 3.632-5.893 4.712-11.68 3.767-16.553-.562-2.893-1.85-5.61-3.748-7.929l-1.434-1.743c-.78-.944-1.521-1.831-2.233-2.671-.39-.053-.704-.372-.736-.782l-.008-.092c-2.623-3.064-4.849-5.475-7.121-7.655l-.356-.339c-2.35-2.223-4.358-3.763-5.935-4.5-1.322-.619-2.158-.634-2.685-.082 1.399.606 2.813 1.92 3.654 3.801.194.433 0 .942-.432 1.136-.432.194-.94 0-1.133-.433-.587-1.312-1.428-2.214-2.392-2.726-.7-.372-1.408-.485-1.693-.391-.375.123-.598.356-.747.726l-.05.13c-.046.132-.07.25-.12.545 1.94.278 4.116 1.554 5.22 3.114.274.388.183.924-.204 1.199-.386.274-.921.183-1.195-.204-.909-1.285-2.935-2.39-4.47-2.441-.122-.004-.3.06-.355.115-.116.12-.218.31-.302.573-.132.41.195 1.48.597 2.07.057-.022.116-.04.178-.056 1.292-.334 2.746.453 3.954 1.877.306.361.263.904-.098 1.211-.361.308-.902.264-1.21-.098-.827-.976-1.713-1.456-2.217-1.326-.02.005-.055.076-.065.227-.06.851.319 1.63 1.173 2.651.486.583.995 1.144 1.525 1.683l.012.014.288.309c1.29 1.423 5.552 6.413 10.11 11.84.092.11.152.236.18.368 2.514 3.44 3.963 7.656 4.072 11.924.012.474-.362.869-.835.881-.474.012-.867-.362-.88-.837-.11-4.316-1.717-8.585-4.478-11.896-.063-.076-.111-.159-.144-.246l-2.46-2.92c-2.026-2.396-3.842-4.524-5.138-6.024.01.067.013.136.006.207-.038.434-.391.763-.814.782l-.06-.002-7.232 1.71c-.056.013-.111.02-.166.022l.036.14 1.118 4.541c1.89 7.866 2.538 11.84 2.388 16.587l-.013.34-.017.457-.649.4c-2.518 1.509-4.794 2.052-9.257 2.456l-.454.04-3.324.27-.01-.924c-.06-5.899-.616-11.794-1.654-17.615-.197.267-.47.356-.795.373l-2.884-.007c-.05 1.054-.135 2.106-.254 3.154.73.057 1.468.028 2.191-.086.067-.402.13-.802.192-1.202.066-.43.44-.736.862-.73l.116.01c.468.073.79.512.717.981l-.13.823c.167.11.296.28.354.488.127.458-.14.932-.597 1.059l-.016.004c-.214 1.22-.448 2.437-.702 3.649l.065-.01.01-.024c.05-.11.124-.21.219-.292l.102-.075c.96-.606 1.829.546 1.41 1.366-.216.417-.524.558-.953.64-.41.08-.823.132-1.238.157-.107.477-.219.955-.334 1.433l1.978-.023c.474-.005.862.375.867.85.005.475-.374.864-.848.87l-6.731.076c-.118 0-.2-.005-.312-.028-.214-.045-.413-.145-.578-.329-.338-.378-.324-.726-.19-1.147 1.677-5.3 2.38-10.909 2.065-16.46-.027-.474.334-.88.807-.907.473-.027.878.336.905.81.061 1.074.086 2.15.074 3.225l2.224.007.031-.031c.277-.245.703-.272 1.034-.116l.07.036c-1.085-5.633-2.622-11.19-4.598-16.605l-1.306-.014-.945-.016c.634.718.963 1.66 1.19 2.974.06.345.113.692.158 1.039.31-.029.62-.069.934-.12.468-.074.908.245.982.714.075.469-.243.91-.71.985-.354.056-.7.1-1.047.134.064 1.053.059 2.111-.014 3.164l-.058.704-.002.12.086.056c.207.154.34.398.348.667l-.005.117c-.004.04-.012.08-.021.12 1 .061 2.004.108 3.01.14.474.015.846.412.83.887-.015.475-.41.847-.884.832-9.89-.317-19.58-2.042-28.33-5.077-.055-.02-.107-.044-.156-.073.221.202.327.515.253.828-2.606 10.961-4.29 21.775-4.999 32.406-.012.183-.08.348-.186.48 1.399.803 2.455 2.233 3.036 4.193l.03.11.155-.125c1.716-1.357 3.6-1.265 5.563.349l.246.21.063-.149c.544-1.25 1.183-2.302 1.873-3.07l.02.553c-.202-4.412.194-8.85 1.173-13.157.105-.463.565-.752 1.027-.647.462.106.75.566.645 1.03-.818 3.597-1.214 7.291-1.178 10.981 1.092-.417 2.125-.083 2.94.91l.06.076.015-.023c.68-1.204 1.437-2.033 2.256-2.42l.19-.08c1.17-.45 2.247.008 3.095 1.178l.14.205.074-.04c3.393-1.75 5.96.049 6.667 3.931l.022.135.132-.134c1.868-1.87 4.705-2.457 6.102-.569l.11.159c1.154 1.702 1.098 4.292-.082 7.585-.16.447-.651.68-1.097.519-.446-.16-.677-.653-.517-1.1 1.013-2.828 1.058-4.887.268-6.051-.92-1.414-4.215.12-4.79 2.861-.22 1.042-1.76.835-1.696-.228.313-5.236-1.781-7.335-5.034-5.164-.434.29-1.024.127-1.25-.345-.566-1.19-1.065-1.515-1.53-1.337-.664.254-1.488 1.34-2.231 3.112-.298.711-1.309.699-1.59-.02-.61-1.564-1.192-1.864-1.933-1.41-.1.062-.2.135-.302.219-.075.294-.302.529-.595.611-.69.84-1.373 2.135-1.907 3.7-.213.622-1.015.785-1.451.294-2.233-2.505-3.756-2.487-5.474-.23-.464.608-1.43.351-1.532-.408-.508-3.79-2.531-5.579-5.4-5.193-2.87.387-4.35 2.647-3.842 6.439.092.68-.61 1.188-1.226.887-1.867-.915-3.422.165-5.04 3.796.4.748.83 1.617 1.305 2.616.205.428.024.941-.404 1.146-.427.204-.94.023-1.143-.405l-.497-1.026c-1.748-3.542-2.727-4.727-3.907-4.568-.87.117-1.262 1.238-.926 3.746.13.966-1.192 1.368-1.62.493-.909-1.86-1.819-2.556-2.889-2.412-.825.111-1.423.64-2.16 1.915l-.191.34c-.13.239-.269.506-.428.825l-1.302 2.672c-.401.807-1.615.53-1.626-.373-.083-6.836-1.672-11.18-4.26-13.672l-.1-.093-.046.082c-.212.392-.385.808-.522 1.246l-.096.332c-.415 1.573-.367 3.285-.031 4.912.097.473.193.816.252.99.288.851-.754 1.519-1.403.9l-.803-.778-.276-.27c-.807-.794-1.615-1.608-2.37-2.396l-.541-.57-.595-.64c-.188-.207-.367-.406-.536-.597l-.487-.563-.004.022c-.723 3.344-.167 8.791.995 10.869l.118.196c.26.398.147.93-.25 1.19-.396.26-.927.147-1.186-.25-1.763-2.709-2.416-10.671-.758-14.207.285-.61 1.127-.668 1.494-.105.417.641 1.278 1.652 2.457 2.907l.53.557c.37.387.755.781 1.147 1.177l.293.294-.012-.123c-.1-1.174-.048-2.364.204-3.522l.104-.433c.293-1.108.771-2.124 1.456-3.024.287-.378.825-.45 1.202-.162 2.967 2.27 4.946 6.193 5.549 12.186l.016.183.096-.185c.113-.218.218-.414.322-.598l.103-.181c.978-1.69 1.963-2.561 3.417-2.757 1.115-.15 2.094.174 2.954.947l.034.031.013-.09c.24-1.499.968-2.436 2.239-2.683l.194-.032c1.562-.21 2.625.378 3.826 2.164 1.527-2.937 3.32-4.34 5.403-4.03l.105.017-.003-.168c-.033-3.754 1.887-6.276 5.169-6.83l.255-.038c.85-.115 1.652-.082 2.39.087.715-10.728 2.414-21.636 5.042-32.689.024-.104.067-.198.123-.282-.06-.04-.114-.09-.163-.149-1.01-1.192-1.5-2.817-1.491-4.572.006-1.303.21-2.398.737-4.447l.185-.688c.423-1.498.841-2.438 1.55-3.22l-.012.302c.187-4.537.441-8.675.782-12.583-8.231 1.088-17.264 3.63-23.476 6.65-.426.208-.94.03-1.146-.398-.206-.427-.029-.941.398-1.149 6.473-3.147 15.86-5.774 24.385-6.857.19-1.99.404-3.924.645-5.827-9.923.758-22.404 2.872-27.978 5.125-.44.178-.94-.035-1.116-.475-.178-.44.035-.942.474-1.12 5.818-2.351 18.692-4.525 28.85-5.27.171-1.256.355-2.502.553-3.743-4.37-.37-9.063-.374-13.937-.069l-1.02.068c-5.093.365-9.971 1.048-12.12 1.522-.462.102-.92-.191-1.021-.655-.102-.464.19-.922.653-1.024l.482-.101c2.583-.517 7.728-1.202 12.92-1.526 5.003-.313 9.824-.307 14.323.082 1.409-8.348 3.43-16.663 6.311-27.062.158-.569.828-.812 1.313-.477l.437.31c2.021 1.473 5.153 4.224 8.701 7.563.892-2.587 2.378-5.769 4.018-8.216 2.58-3.85 5.437-5.895 8.468-5.308l.028-.075c.03-.08.07-.152.12-.217-.304-.261-.59-.598-.774-.895-.43-.692-.63-1.678-.66-2.828-.026-.995.112-1.798.587-2.288l.116-.107.118-.089c.605-.408 1.312-.18 1.756.367zm1.342 103.28l.045.998c.015.362.028.723.04 1.085l.028 1.085.003.234 1.006-.079c1.217-.099 2.269-.203 3.199-.326l-.354-2.955c-1.322 0-2.645-.014-3.967-.042zm10.441-.371c-.156.189-.381.308-.636.316-1.37.045-2.738.074-4.108.088.105.871.21 1.769.318 2.69 1.625-.314 2.862-.751 4.099-1.432l.223-.125.09-.053.013-.575c.004-.304.005-.607.001-.91zm-.561-6.046l-.08.066c-.15.112-.326.194-.517.229l-.145.016-4.179.205c.175 1.34.351 2.743.53 4.214 1.42-.01 2.84-.04 4.26-.086.261-.009.5.101.663.28-.067-1.548-.238-3.127-.532-4.924zm-18.187 2.904l-.13.51c-.064.242-.13.483-.197.723l-.22.762 2.18-.025.309-1.295.05-.214c-.68-.081-1.348-.236-1.992-.461zm11.547-2.303l-3.674.182c.135 1.303.245 2.608.333 3.914l.025-.001c1.28.028 2.56.042 3.838.043l-.001-.018c-.176-1.438-.35-2.809-.52-4.12zm-8.526-2.25l-.157.016c-.65.058-1.304.06-1.955.005-.143.953-.315 1.901-.516 2.844l-.13-.048c.67.266 1.38.437 2.1.51.237-1.106.456-2.215.658-3.328zm7.67-3.86l-.541.086c-.967.168-1.925.388-2.867.66-.041.012-.083.021-.124.027.198 1.265.372 2.534.524 3.806l3.637-.18c-.21-1.547-.418-3.01-.629-4.4zm5.91-.243c-1.4-.098-2.807-.085-4.205.037.215 1.428.429 2.93.643 4.52l3.9-.19.05-.07c.14-.17.345-.285.574-.308l.116-.004c.067.002.133.011.198.026-.227-1.188-.502-2.479-.828-3.915l-.039-.168c-.124.056-.264.082-.409.072zm-6.81-5.17l-.528.096c-1.034.194-2.064.413-3.088.656.259 1.242.494 2.486.708 3.734l-.076.022c1.188-.344 2.397-.61 3.619-.796-.207-1.295-.417-2.528-.634-3.711zm5.78-.89l-.032.024c-.113.075-.247.124-.392.137-1.224.115-2.446.264-3.662.449.221 1.207.436 2.464.646 3.785 1.494-.137 2.998-.157 4.495-.057l-.088-.375-.439-1.818c-.177-.724-.346-1.411-.528-2.144zm-6.98-4.878l-.188.044c-1.186.298-2.344.705-3.455 1.217.31 1.188.598 2.382.866 3.579l-.84.204c1.488-.374 2.988-.696 4.497-.966-.28-1.42-.571-2.772-.88-4.078zm3.972-5.886c-1.208.161-2.414.346-3.616.552.324 1.093.629 2.196.917 3.327 1.05-.165 2.113-.253 3.177-.26.473-.004.86.379.863.854.003.474-.378.862-.852.865-.928.006-1.856.08-2.775.217.312 1.324.606 2.692.888 4.13 1.27-.195 2.545-.352 3.823-.471.067-.007.132-.005.196.004l-2.36-9.297c-.08.039-.167.066-.26.079zm-19.032 3.037l.1 4.302c.003.137-.026.267-.08.383 1.407.176 2.826.322 4.251.438-.115-.285-.152-.628-.133-.99l.012-.158c.115-1.193.136-2.394.063-3.59-1.178-.015-2.495-.146-4.213-.385zm-5.612-.88l-.007.29c-.012 1.47.089 2.941.303 4.395l.005.066c1.227.223 2.464.422 3.709.598l-.002-.01-.01-.116-.11-4.596-.342-.052c-1.18-.182-2.353-.372-3.546-.575zm29.86.195l-2.46.42 1.173 4.627c.057-.029.12-.051.185-.067l2.248-.531-.85-3.334c-.102-.396-.201-.767-.297-1.115zm-34.48 2.701c.118.274.082.576-.07.808 1.063.254 2.135.49 3.216.707l.073.525c-.255-1.731-.358-3.485-.31-5.234-.824-.146-1.663-.299-2.525-.46l-1.198-.228c.02 1.332.292 2.66.814 3.882zm37.516-3.798l-.011.034c-.024.06-.053.118-.09.175-.236.365-.502.47-.923.544l-.314.052c.048.174.096.354.145.54l.331 1.281.642 2.525 3.35-.79c.098-.024.2-.036.301-.038l.152.005c.06.006.12.017.175.034-.697-.799-1.171-1.331-1.349-1.51l-.014-.017-.406-.42c-.414-.438-.814-.89-1.201-1.353-.306-.365-.57-.716-.788-1.062zm-13.567-.394l-.812.156c-1.023.203-2.043.422-3.059.658.398 1.258.772 2.521 1.122 3.79 1.185-.528 2.418-.946 3.68-1.25-.293-1.14-.602-2.253-.93-3.354zm-28.866 3.666l.01.035c1.06.318 2.135.617 3.22.897l.111.272c-.659-1.54-.976-3.218-.953-4.89l-2.745-.547c-.16 1.418-.047 2.867.357 4.233zm-5.352-4.082c-.006 1.305.327 2.478.977 3.32.216-.297.608-.431.972-.305.496.172.996.34 1.499.504-.263-1.317-.307-2.675-.14-4.007l-3.236-.644c-.048.39-.07.754-.072 1.132zm20.366-2.981l.093 3.831c1.69.24 2.968.376 4.084.403-.035-.269-.076-.535-.122-.8-.206-1.19-.49-1.904-.989-2.335-.287-.248-.37-.645-.233-.979-.983-.03-1.926-.07-2.833-.12zm22.334-.48l-.201.037c-.532.093-1.068.17-1.605.233l.101.408.87 3.439 2.397-.411c-.443-1.399-.873-2.404-1.469-3.462-.044-.078-.075-.161-.093-.245zm-27.358.04l.025.097c.02.102.02.208 0 .316-.185.989-.317 1.988-.397 2.99 1.256.214 2.487.415 3.725.605l.04.006-.084-3.553c0-.045.002-.09.007-.133-1.157-.087-2.258-.195-3.316-.327zm-4.314-57.393l-.67 2.464c-2.328 8.631-4.023 15.863-5.252 23.108 2.588.285 5.058.705 7.383 1.271.46.112.742.577.63 1.039-.112.461-.575.744-1.036.632-2.277-.555-4.706-.965-7.256-1.243-.184 1.15-.355 2.302-.517 3.463 3.116-.182 5.9-.213 8.04-.053.473.036.827.448.792.922-.036.473-.447.828-.92.793-2.144-.16-4.972-.122-8.142.074-.244 1.877-.459 3.785-.65 5.745 2.483-.256 4.867-.37 7.055-.318.474.012.848.406.837.88-.012.475-.405.85-.878.84-2.215-.055-4.644.07-7.176.344-.324 3.636-.57 7.47-.757 11.641l-.018.435c.115 0 .232.025.343.076 6.96 3.146 12.864 4.073 23.761 4.19l.386-.346c3.502-3.147 8.806-3.767 12.706-1.38l.257.163.283.186.25 1.012.478-.055c1.252-.157 2.492-.405 3.707-.738.457-.126.929.143 1.054.601.125.458-.144.931-.6 1.057-.233.064-.467.125-.702.183l-.13-.234c.698 1.239 1.18 2.386 1.684 4.015l.061-.01.017-.038c.08-.164.213-.303.385-.39l.107-.045c.227-.077.434-.078.612-.024-.133-.462-.184-.937-.148-1.447.009-.126.025-.25.05-.37l.076.082c-.889-.907-1.555-2.879-1.187-4.025.159-.496.382-.914.71-1.249.131-.136.289-.252.46-.346.009-.082.021-.173.037-.273l.063-.382c.074-.427.116-.568.249-.898.327-.812.91-1.423 1.802-1.717l.165-.047-.04-.093c-.329-.781-.638-1.605-.918-2.454l-.219-.68c-.92-2.957-1.349-5.607-1.12-7.359-.562.096-1.14.146-1.73.146-4.052 0-7.56-2.339-9.252-5.742-.901 1.108-2.134 1.988-3.535 2.495-.446.161-.937-.07-1.098-.517-.161-.446.07-.939.515-1.1 1.468-.531 2.697-1.578 3.38-2.85-.224-.844-.342-1.73-.342-2.643 0-5.72 4.626-10.357 10.332-10.357 4.825 0 8.878 3.317 10.014 7.8.127-.122.293-.205.482-.229 2.23-.277 4.699-.489 7.3-.638-.245-1.445-.496-2.88-.753-4.301l-.364-1.993c-.91-4.914-1.835-9.4-2.657-12.968l-.27-1.155c-.365-1.53-.692-2.802-.962-3.74l-.2-.666c-.04-.128-.078-.245-.114-.35l-.059-.165-.153.073c-.397.204-.927.57-1.577 1.09l-.405.33c-.762.633-1.636 1.422-2.75 2.473l-1.71 1.633-2.904 2.792c-3.24 3.087-3.776 3.421-4.6 3.374l-.113-.008-.191-.015c-.128 1.198-.436 2.146-.953 2.955-.012.055-.03.11-.054.165-.077.172-.203.306-.354.394-.563.682-1.306 1.268-2.25 1.842-1.751 1.067-3.663 1.441-6.097 1.391-1.873-.036-3.278-.314-4.61-1.06-2.27-1.274-3.424-3.197-3.538-5.555h.122c-1.3.003-1.632-.051-1.926-.316l-1.883-1.836c-.602-.583-1.198-1.155-1.785-1.714-.087-.055-.161-.127-.22-.208-3.32-3.155-6.332-5.854-8.45-7.525l-.39-.304zm-.728 56.502l.011.021c.098.216.108.47.004.705-.363.823-.61 1.695-.744 2.586l.215.041c1.207.23 2.364.444 3.492.645.081-1.01.217-2.015.403-3.01.021-.115.064-.22.124-.311-1.214-.187-2.374-.41-3.505-.677zm22.018-1.423l-.047.011c-1.197.28-2.352.793-3.374 1.528l-.253.188-.075.06.194.518c.366 1.002.717 2.009 1.054 3.02l-.453.104c1.441-.343 2.89-.653 4.343-.932-.422-1.313-.876-2.623-1.37-3.96-.065-.18-.068-.367-.02-.537zm31.168-28.005l-.21.011c-2.555.147-4.98.355-7.167.627-.155.019-.305-.005-.44-.061.043.373.064.754.064 1.14 0 3.823-2.066 7.163-5.14 8.957 1.347 1.335 2.713 4.027 3.804 7.317.295.89.55 1.775.758 2.633l.147.637.028.13.145.071c1.725.867 3.77 2.456 6.117 4.678 1.986 1.88 3.91 3.903 6.056 6.341-.585-6.689-1.37-13.518-2.305-20.279-3.408-.754-6.657-1.268-9.412-1.501-.472-.04-.822-.456-.782-.93.037-.433.388-.764.81-.786l.117.002c2.663.226 5.758.701 9.01 1.397-.156-1.108-.317-2.215-.483-3.318-.817.01-1.657.024-2.521.044l-2.414.062c-.473.012-.867-.363-.88-.837-.01-.475.363-.87.837-.881l3.274-.081c.489-.01.97-.017 1.445-.023-.278-1.795-.564-3.58-.858-5.35zm-56.947 28.354l.035.08c.09.24.072.518-.074.754-.521.843-.916 1.762-1.18 2.72l2.565.506c.159-1.017.446-2.013.862-2.956.064-.145.163-.263.283-.35-.84-.225-1.666-.476-2.49-.754zm27.547-.579l-.217.011c.03.05.056.102.077.159l.329.903c.403 1.123.78 2.231 1.133 3.343 1.296-.226 2.595-.426 3.898-.6l.08-.006-.66-2.657-.274-.156c-1.331-.724-2.846-1.048-4.366-.997zm-32.066-1.229l-.08.093c-.486.594-.808 1.4-1.173 2.758l-.084.32c-.115.445-.213.841-.296 1.2l-.024-.005 3.272.658c.306-1.157.777-2.269 1.407-3.288.092-.149.222-.26.37-.328-1.081-.396-2.168-.845-3.28-1.348-.04-.017-.077-.038-.112-.06zm46.921-15.085c-.447.15-.194 3.889 1.157 7.964.221.668.46 1.319.713 1.943.693-.592 1.58-.784 2.607-.618-.182-.722-.4-1.467-.648-2.216-1.351-4.074-3.381-7.221-3.829-7.073zm-3.54-18.381c-4.758 0-8.616 3.867-8.616 8.637 0 .739.093 1.455.267 2.14.122.162.182.365.168.57 1.132 3.443 4.367 5.927 8.182 5.927 4.758 0 8.616-3.867 8.616-8.637 0-4.77-3.858-8.637-8.616-8.637zm.038 3.885l.115.015c.271.055.486.233.6.464l.025.063.158.114c1.901 1.472 2.132 4.769.4 6.48l-.168.155c-.435.377-1.11.227-1.344-.3-.868-1.95-1.11-4.197-.682-6.305.086-.426.474-.714.896-.686zm-19.843 1.955c.468.072.788.512.716.98-.072.47-.51.792-.979.72-1.28-.2-2.67.395-3.413 1.458-.272.389-.807.483-1.195.21-.388-.272-.482-.808-.21-1.197 1.118-1.6 3.155-2.47 5.08-2.171zm7.763-11.481l-1.407.076c-1.639.083-2.585.086-3.684-.004.31.39.697.743 1.163 1.06l.26.168.245.144c.994.557 2.083.79 3.586.837l-.163-2.281zm2.136-.097l-.422.014.169 2.333c1.424-.11 2.598-.45 3.673-1.105.43-.262.8-.517 1.12-.78-1.282-.365-2.747-.497-4.54-.462zm3.564-2.774h-.105c-.565.001-1.166.005-1.804.013l-2.274.04.073 1.016.472-.013c2.291-.049 4.136.157 5.792.75.18-.357.311-.756.401-1.212l.043-.24.001-.014-.923-.137c-.558-.078-1.117-.145-1.676-.203zm-5.9.094l-5.707.145c-.3.043-.599.089-.898.138l.725-.111.005.089c.033.426.111.828.236 1.207.171-.232.454-.37.761-.343l.42.032c.9.06 1.767.05 3.19-.022l1.345-.076-.077-1.06zm-11.589-4.816l-.037.122c.691.66 1.394 1.336 2.103 2.027l1.103 1.08.299.017.351.01c.196.003.421.004.677.004l1.28-.02c3.924-.554 7.868-.634 11.792-.238 1.796.002 3.234.042 4.359.13l.261.021c.185.017 1.221-.868 3.655-3.173l-.084-.285c-1.951-6.343-6.093-12.588-9.936-12.745.15.556.388 1.18.759 2.042l.498 1.147c.2.468.331.798.457 1.154l.053.155.065.192c1.116-.032 1.772-.157 2.4-.475.423-.214.938-.043 1.152.38.213.425.043.942-.38 1.155-.814.412-1.582.585-2.718.643.23 1.15.332 2.375.344 3.943 1.288-.039 2.424-.213 3.56-.54.456-.132.931.132 1.062.588.131.457-.132.933-.587 1.064-1.31.378-2.6.573-4.05.613-.012.51-.03 1.054-.052 1.638-.018.475-.416.845-.89.827-.473-.018-.842-.418-.824-.892l.043-1.319.007-.274c-.958-.043-1.998-.14-3.16-.281l-1.427-.188-2.66-.37c-.164-.022-.317-.042-.465-.06-.075.787-.036 1.464.123 2.143.107.462-.18.924-.64 1.032-.462.108-.923-.179-1.03-.641-.209-.893-.259-1.749-.16-2.717-1.4-.128-2.805-.188-4.21-.183-.473.002-.858-.381-.86-.856-.002-.475.38-.861.854-.863 1.503-.006 3.007.061 4.504.2.129-.575.295-1.202.497-1.898l.328-1.107c-1.019-.035-2.038-.076-3.058-.123-.473-.022-.84-.424-.818-.898.022-.474.423-.841.896-.82 1.168.054 2.336.1 3.503.138.479-1.524.988-3.038 1.526-4.541-4.015-.34-8.387 6.246-10.465 13.042zm10.19-6.742l-.073.236c-.13.43-.257.862-.382 1.294-.171.592-.314 1.124-.428 1.612l.384.046 3.074.427c1.516.206 2.814.342 3.973.397-.016-1.59-.128-2.786-.383-3.906l.39.003c-2.181-.01-4.366-.047-6.555-.109zm3.32-7.386l-.026.021c-.242.157-.554.183-.823.058l-.18.49c-.007.06-.02.12-.041.179-.025.07-.058.135-.097.194l.365-.99c-.71 1.892-1.372 3.802-1.987 5.726 1.71.048 3.414.078 5.117.092l-.02-.051c-.122-.324-.27-.676-.503-1.212l-.163-.373c-.533-1.215-.855-2.044-1.043-2.821-.305-.045-.576-.254-.685-.566-.09-.259-.05-.532.086-.747zm1.317-15.128c.278 0 .277.431 0 .431-.279 0-.278-.431 0-.431z" transform="translate(-59 -270) translate(56.5 270)"/>
            </g>
        </g>
    </g>
</svg>
