<svg xmlns="http://www.w3.org/2000/svg" viewBox="0 0 345 338">
    <g fill="none" fill-rule="evenodd">
        <g>
            <g>
                <path fill="#FFD370" d="M161.66 10.778l38.24-.031c75.11-.061 136.05 60.778 136.11 135.89v.222l-.021 26.288c-.029 34.677-6.347 60.951-18.195 83.09-11.848 22.14-29.225 39.516-51.364 51.364-22.14 11.847-48.414 18.166-83.09 18.194l-38.24.031c-75.11.061-136.05-60.779-136.11-135.89v-.222l.021-26.288c.029-34.677 6.347-60.951 18.195-83.09C39.054 58.195 56.431 40.82 78.57 28.971c22.14-11.847 48.414-18.166 83.09-18.194z" transform="translate(-15 -278) translate(15 278) rotate(3 172.5 168.286)"/>
                <path fill="#FFF" d="M180.507 95.3c.977 9.59 2.14 11.893 3.125 21.192 2.788-2.585 5.34-4.73 6.123-4.235.26.163 1.016 2.741 2.027 7.089 9.37-9.917 13.505-12.725 23.936-22.227 11.27 5.072 22.541 10.142 33.812 15.213 8.309 3.738 18.106 10.81 25.094 16.588.61.505 1.248 1.093 1.359 1.87.143.999-.634 1.876-1.353 2.597-9.409 9.44-26.187 26.862-35.96 36.325.016 5.014.046 10.159.077 15.317l.032 5.524c.033 5.978.061 11.92.064 17.647l-.001 2.628c-.007 6.961-.057 13.555-.186 19.446-28.818 11.358-55.039 19.456-88.284 28.292l-1.757.466c-15.458-12.057-31.11-24.838-46.568-36.894-1.753-1.366-3.562-2.802-4.515-4.77-.532-1.099-.658-13.844-.666-28.115v-2.97l.002-2.995.004-2.25.002-.953c-4.121-2.63-8.681-4.732-13.294-6.776l-1.643-.725c-7.948-3.503-15.915-7-21.937-12.887 10.765.185 23.825-1.18 34.548-2.097-9.351-11.243-16.256-24.834-23.471-37.502 36.028-10.045 72.564-18.324 109.43-24.798zm-30.994 102.224l-.419 28.792c.136-3.88.28-7.071.4-10.22l.036-.944.017-.472.033-.948c.151-4.51.238-9.26.17-16.118l-.237-.09z" transform="translate(-15 -278) translate(15 278)"/>
                <g stroke="#000" stroke-linecap="round" stroke-linejoin="round" stroke-width="2.7">
                    <path d="M90.462 164.641c-15.459-12.056-32.957-24.837-48.415-36.893-1.753-1.366-3.562-2.802-4.515-4.77-.917-1.895-.531-17.304-.513-36.564M88.83 97.33C75.457 91.211 63.38 82.725 51.39 74.287c-5.325-3.747-16.841-11.079-16.841-11.079-9.351-11.242-16.256-24.833-23.471-37.501C47.105 15.663 83.64 7.384 120.507.91c.997 9.788.342 3.353 1.34 13.142" transform="translate(-15 -278) translate(15 278) translate(65 85.521)"/>
                    <path d="M89.626 95.553c27.006-8.472 89.45-23.693 89.45-23.693 0 22.505 0 44.878-.42 64.024-29.323 11.558-55.958 19.739-90.04 28.757 0-43.23 1.651-39.301 1.01-69.088" transform="translate(-15 -278) translate(15 278) translate(65 85.521)"/>
                    <path d="M136.615 20.99c9.873-10.533 8.413-8.523 19.103-18.261 11.27 5.072 22.541 10.142 33.812 15.213 8.309 3.738 18.106 10.81 25.094 16.588.61.505 1.248 1.093 1.359 1.869.143 1-.634 1.877-1.353 2.598-11.5 11.537-23.536 23.145-35.036 34.682M27.402 64.583c-10.723.918-16.637.909-27.402.724 12.251 11.977 32.556 14.06 44.362 26.434 2.772 2.906 5.365 6.531 9.416 7.27 2.198.4 4.446-.153 6.629-.628 8.486-1.845 21.362-2.521 30.055-2.048M72 80.956c.324-30.972 4.752-47.538 9.301-63.673 3.195 2.168 9.53 8.024 13.963 12.311.418.405 14.127-.477 19.634 0 1.731.151 13.043-12.875 14.857-11.727.91.574 7.956 30.886 10.553 63.09" transform="translate(-15 -278) translate(15 278) translate(65 85.521)"/>
                    <path d="M92.594 45.73c-.192.528-.385 1.09-.23 1.63.157.537.813 1 1.4.804.354-1.193.185-2.501-.465-3.593-.498.273-.694.902-.423 1.36M118.275 44.571c-.251 1.215-.11 2.513.4 3.639 1.014-.865.842-2.798-.306-3.458l-.2 1.272M103.385 53.668c1.838-.654 3.354-2 4.095-3.639.692 1.155 1.896 2.055 3.29 2.462M46.154 46.39c2.029-.44 21.53-3.796 36.923-.108M44.308 55.487c8.342-3.316 29.957-6.01 38.769-5.36M48 64.583c8.116-3.88 22.448-7.522 33.23-7.264M127.385 45.464c11.96-1.46 31.364-1.113 40.615.927M131.077 51.969c7.877-.196 22.375-.858 35.077 5.337M127.385 55.487c3.896.324 23.301 3.33 33.23 10.915M116.308 42.752c1.775-2.953 4.752-4.295 7.384-3.327" transform="translate(-15 -278) translate(15 278) translate(65 85.521)"/>
                </g>
            </g>
        </g>
    </g>
</svg>
