<svg width="321px" height="384px" viewBox="0 0 321 384" version="1.1" xmlns="http://www.w3.org/2000/svg">
  <g id="decoration" transform="translate(147.761439, 203.492882) rotate(50.000000) translate(-147.761439, -203.492882) translate(-42.738561, 59.492882)">
    <ellipse fill="#FBE3B4" cx="237.247421" cy="144.885937" rx="143.5" ry="143"></ellipse>
    <path d="M14.0373459,41.8731874 L145.869583,4.24783522 C153.561628,2.05250026 161.579393,6.4967943 163.793845,14.1833581 L208.023738,167.709371 C210.242088,175.409467 205.798255,183.449957 198.098158,185.668307 C198.086604,185.671636 198.075046,185.67495 198.063484,185.67825 L66.2312471,223.303602 C58.5392017,225.498937 50.5214362,221.054643 48.3069848,213.368079 L4.07709144,59.8420669 C1.85874127,52.1419702 6.30257484,44.1014804 14.0026715,41.8831302 C14.0142255,41.8798016 14.0257837,41.8764873 14.0373459,41.8731874 Z" fill="#83E0FF"></path>
    <circle fill="#5A65FF" cx="186.375715" cy="119.169802" r="99.5"></circle>
  </g>
</svg>
