<svg width="56" height="56" viewBox="0 0 48.024 48.07" xmlns="http://www.w3.org/2000/svg" xmlns:xlink="http://www.w3.org/1999/xlink">
  <defs>
    <filter id="5acbhd1oob" width="133.3%" height="133.3%" x="-16.7%" y="-8.3%" filterUnits="objectBoundingBox">
      <feMorphology in="SourceAlpha" radius="2" result="shadowSpreadOuter1"/>
      <feOffset dy="4" in="shadowSpreadOuter1" result="shadowOffsetOuter1"/>
      <feGaussianBlur in="shadowOffsetOuter1" result="shadowBlurOuter1" stdDeviation="4"/>
      <feColorMatrix in="shadowBlurOuter1" values="0 0 0 0 0.443137255 0 0 0 0 0.349019608 0 0 0 0 0.164705882 0 0 0 0.164663462 0"/>
    </filter>
    <path id="5lcuhhdxya" d="M0 0H48V48H0z"/>
  </defs>
  <g fill="none" fill-rule="evenodd" transform="matrix(1, 0, 0, 1, -3.982901, 0.079009)">
    <g>
      <g>
        <g transform="translate(-315 -589) translate(8 557) translate(311 32)">
          <mask id="c4tol1inwc" fill="#fff">
            <use transform="matrix(1, 0, 0, 1, 0, 0)" xlink:href="#5lcuhhdxya"/>
          </mask>
          <g>
            <use fill="#000" filter="url(#5acbhd1oob)" transform="matrix(1, 0, 0, 1, 0, 0)" xlink:href="#5lcuhhdxya"/>
            <use fill="#2C2D2F" transform="matrix(1, 0, 0, 1, 0, 0)" xlink:href="#5lcuhhdxya"/>
          </g>
          <path fill="#FFD370" d="M18.974 2.04c8.75.391 23.533 9.667 33.164 18.853C58.56 27.016 64.18 33.202 69 39.45l-.124.23c-1.07 1.869-2.21 3.693-3.419 5.47-1.147 1.66-2.437 3.407-3.87 5.236-4.376 5.466-9.431 10.375-15.04 14.605-.477.341-.96.677-1.45 1.009-4.255-12.878-9.637-22.422-16.148-28.631-9.766-9.314-18.86-11.668-18.296-15.683.564-4.015-4.55-3.734-3.514-8.413S6.122 8.985 8.621 6.43c1.666-1.704 3.255-2.17 4.766-1.4-2.11-2.253-.247-3.25 5.587-2.99z" mask="url(#c4tol1inwc)"/>
          <path fill="#FFF" d="M19.313 6.424c6.433.291 17.3 7.197 24.382 14.035 4.72 4.558 8.853 9.163 12.396 13.814l-.091.172c-.786 1.391-1.625 2.75-2.513 4.072-.843 1.236-1.792 2.536-2.846 3.898-3.217 4.07-6.933 7.724-11.056 10.873-.351.254-.707.504-1.067.75-3.128-9.586-7.085-16.691-11.871-21.314-7.18-6.933-13.865-8.685-13.45-11.674.414-2.99-3.346-2.78-2.585-6.264.762-3.483-.747-3.192 1.09-5.094 1.225-1.268 2.393-1.616 3.504-1.042-1.55-1.678-.182-2.42 4.107-2.226z" mask="url(#c4tol1inwc)"/>
          <g stroke="#000" stroke-linecap="round" stroke-linejoin="round" stroke-width="1.5" mask="url(#c4tol1inwc)">
            <g>
              <path d="M3.694 2.78c.083-.43.201-1.118 1.092-1.504C10.036-1 22.766.483 45.478 29.484M8.075 14.73c-1.611-1.106-3.348-1.593-4.455-.964-.699.396-.616 1.193-.554 1.503.334 1.695 1.626 2.799 2.851 3.652.846.59 1.71 1.142 2.587 1.653 8.698 5.69 15.426 15.072 20.185 28.146M9.202 10.096C7.34 8.562 4.038 7.776 1.733 8.32c-.427.1-.914.417-1.136.814-.222.397-.308.862-.33 1.322-.055 1.201 1.325 3.072 2.323 3.655" transform="translate(13 5)"/>
              <path d="M10.035 6.824c-2.979-3.64-6.672-3.46-7.73-2.764-1.516.997-1.229 2.704-1.152 3.454.024.24.056.5.2.67" transform="translate(13 5)"/>
            </g>
          </g>
        </g>
      </g>
    </g>
  </g>
</svg>