<svg xmlns="http://www.w3.org/2000/svg" xmlns:xlink="http://www.w3.org/1999/xlink" viewBox="0 0 345 338">
    <defs>
        <path id="mz1we1212a" d="M204.484 51.22c27.958 56.816 51.193 115.837 69.47 176.464.238.795-.133 1.645-.877 2.013-67.303 34.245-127.458 52.568-128.774 52.568-1.961 0-4.877 0-39.535-87.123-14.065-35.407-33.73-86.53-33.73-88.387-.025-1.239-.05-2.942 15.252-10.942 9.11-4.748 21.523-10.607 34.916-16.439 32.336-14.142 62.84-25.006 81.368-29.058.77-.178 1.56.196 1.91.903zm-2.478 2.864C159.271 63.813 80.2 100.742 74.574 107.039c1.626 4.929 16.387 44.026 32.826 85.626 28.103 70.812 35.355 83.819 37.187 86.038 8.31-2.168 64-20.18 125.678-51.406-8.876-29.25-18.907-58.124-30.067-86.555-11.52 3.456-113.127 41.946-127.83 51.358l-.426.28h-.155l-2.245-2.58.206-.155c7.587-5.342 50.452-22.426 68.517-29.522 27.645-10.852 53.74-20.582 60.66-22.608-11.197-28.275-23.512-56.108-36.919-83.431zm-40.67 133.161l.593 1.213c7.72 15.732 14.198 32.044 19.373 48.785l.55 1.796.413 1.367-1.29.671c-11.346 5.773-23.131 10.635-35.245 14.542l-1.582.504-1.006.258-.723-.775c-1.187-1.367-4.929-10.012-11.096-25.496-4.384-11.266-9.02-23.16-9.581-24.92l-.02-.061-.283-.903.593-.697c1.814-2.146 25.127-12.968 37.587-15.913l.375-.087 1.341-.284zm-21.862 43.496l-.02.012.172.467c.189.543.348 1.09.522 1.651-1.05.7-2.064 1.45-3.042 2.248 4.62 11.406 6.64 15.722 7.481 17.34l.406-.135c-1.287-4.511-2.286-9.1-2.992-13.738l-.175-1.199-.45-1.166c-.437-1.153-.834-2.266-1.202-3.35-.172-.499-.321-.986-.478-1.47l-.222-.66zm20.08-39.547c-11.801 3.499-23.215 8.194-34.064 14.012.987 2.755 3.595 9.587 6.676 17.47 1.514-.689 3.068-1.288 4.653-1.797v-.008c.68-.238 1.395-.443 2.143-.614v-.005c.877-.207 1.728-.517 2.58-.517l.31 2.22c-.792.102-1.584.28-2.401.459v.005l-.023.006.096.328c.161.578.313 1.251.475 1.908l.098.39-2.065.93c-.258-1.007-.516-1.987-.748-2.942l.024-.009-.015-.054-.723.259c-1.22.45-2.42.953-3.596 1.51.418 1.06.84 2.136 1.267 3.217 1.289-.72 2.592-1.396 3.817-1.981l2.065-.93c.12.465.252.953.388 1.44l.205.728.678 2.283.019-.012c1.263-.708 2.574-1.329 3.922-1.858l.775 2.09c-1.178.463-2.322 1.005-3.426 1.621l-.549.315c.443 1.35.923 2.718 1.474 4.17l.281.733.078.258c.734 4.994 1.792 9.935 3.167 14.79 10.347-3.5 20.443-7.7 30.221-12.568-2.015-3.862-4.268-7.594-6.746-11.175l-.707-1.008-.18-.361c-.362-.706-.712-1.411-1.065-2.109l-.535-1.04c-1.936.2-3.856.528-5.747.984l-.808.203-.645-2.141c1.998-.538 4.034-.927 6.09-1.162l-1.6-2.916-2.4.98-.387.156-.878-2.04.387-.18 2.168-.877-1.858-3.174c-.29-.504-.58-.978-.87-1.477l-.277-.487-.117.054c-2.246-3.82-4.181-6.658-5.162-8-.438.8-1.006 2.039-1.393 2.864-1.196 2.642-1.598 3.454-2.321 3.716l-.08.026c-1.186.388-3.38 1.317-5.16 2.065-2.84 1.213-3.02 1.29-3.562 1.084-1.935-.826-4.284-1.755-5.987-2.323.31 2.839.723 5.936 1.471 9.523-.757.172-1.48.378-2.168.62-.697-3.41-1.224-6.853-1.578-10.315l-.125-1.299-.155-1.548 1.42.361c2.237.664 4.436 1.446 6.59 2.344l.92.392 2.193-.93c1.703-.722 3.793-1.6 5.161-2.038.284-.439.852-1.678 1.265-2.58 1.578-3.457 2.305-4.945 3.55-4.77l.114.02c.784.153 3.625 4.196 6.848 9.53l.183.304.118-.052.009.017.97-.414c1.014-.424 2.045-.832 3.077-1.219-2.438-5.89-5.047-11.711-7.824-17.455zm81.265 18.864l.104 3.51h-.181c-6.77 1.788-33.826 11.316-47.888 20.646l-.422.283h-.155l-2.245-2.58.207-.156c12.365-8.712 45.572-21.445 50.241-21.7l.133-.003h.206zm-102.167 18.116c-1.148.556-2.37 1.2-3.58 1.877.402 1.013.79 1.98 1.161 2.904 1.028-.807 2.094-1.567 3.193-2.278l.017.047-.149-.517c-.159-.54-.322-1.053-.472-1.546l-.145-.487c-.116-.387-.219-.755-.319-1.116l-.3-1.077c.207.722.387 1.419.594 2.193zm32.492-5.026l-.621.02c.275.516.539 1.032.791 1.54l.37.757.103.283c1.538 2.164 2.996 4.382 4.373 6.65-1.008-3.084-2.06-6.152-3.159-9.205-.619-.041-1.238-.057-1.857-.045zm-29.138 1.207l.646 2.116c-.646.18-1.213.439-1.91.748-.207-.722-.413-1.47-.594-2.167.697-.284 1.342-.542 1.858-.697zm10.942-3.794c.278.196.616.287.955.258.32-.036.64.06.888.264.248.204.402.5.428.82.045.619-.414 1.158-1.032 1.213-.36.052-.724.052-1.084 0-.251.555-.621 1.048-1.084 1.445-.2.194-.47.297-.748.284-.32.002-.623-.14-.826-.387-.21-.208-.327-.492-.327-.787 0-.296.118-.579.327-.787.404-.346.654-.838.697-1.368.008-.418.26-.792.645-.955.356-.218.805-.218 1.161 0zm-7.251-2.761c.69.532 1.13 1.326 1.213 2.194.035.362-.11.719-.387.954-.242.203-.539.326-.85.355l-.157.007h-.18c-.45-.056-.858-.288-1.136-.645-.243-.342-.377-.747-.39-1.163l.003-.18v-.154l-.01-.252c.016-.334.145-.656.371-.91.37-.465 1.042-.557 1.523-.206zm24.884-1.12l-.402.092c-.677.162-1.349.347-2.013.555l-.663.215c.484.87.968 1.742 1.43 2.602l.454.856c.93-.065 1.86-.088 2.791-.068-.522-1.42-1.055-2.837-1.597-4.251zm62.548-21.9l.077 3.459h-.154c-6.796 1.686-33.725 11.314-47.885 20.696l-.425.284h-.155l-2.245-2.58.206-.155c12.366-8.712 45.573-21.446 50.217-21.7l.132-.003h.232zm-77.368 18.943c.516.19.94.567 1.187 1.058.295.593.295 1.29 0 1.884-.148.275-.4.476-.696.563l-.13.03h-.18c-.292-.005-.57-.126-.774-.335-.553-.56-.93-1.268-1.084-2.04-.065-.428.12-.856.476-1.103.357-.247.823-.27 1.201-.057zm12.47-2.993l-.018.006c-.976.378-1.986.78-2.984 1.198l-.745.318c.43.722.86 1.456 1.283 2.194l.627 1.109c1.109-.376 2.235-.699 3.375-.967-.503-1.288-1.016-2.575-1.537-3.858zm-6.947.541c.387.62.774 1.239 1.161 1.91-.66.31-1.288.619-1.87.929l-.427.232-1.083-1.961 2.219-1.11zm64.903-32.387l.078 3.51h-.181c-6.77 1.788-33.826 11.316-47.888 20.646l-.422.283h-.155l-2.245-2.581.207-.155c12.365-8.712 45.572-21.445 50.241-21.7l.133-.003h.232zm-5.47-14.89l.077 3.51h-.181c-6.77 1.788-33.826 11.316-47.863 20.646l-.421.282h-.18l-2.22-2.58.206-.13c12.34-8.737 45.547-21.47 50.216-21.725l.133-.003h.232zm-16.646-49.342v3.406h-.155c-6.451 1.677-76.026 28.387-90.039 37.807l-.103.206-2.22-2.58.207-.13c12.465-8.8 87.742-38.529 92.078-38.71h.232zm-6.942-15.82v3.407h-.18c-6.452 1.677-76.026 28.387-90.04 37.806l-.077.232-2.245-2.58.207-.155c12.464-8.8 87.741-38.503 92.103-38.71h.232zm-5.47-14.89v3.38h-.182c-6.451 1.704-76.025 28.388-90.012 37.833l-.104.232-2.22-2.58.182-.155c12.49-8.8 87.742-38.504 92.103-38.71h.232z"/>
    </defs>
    <g fill="none" fill-rule="evenodd">
        <path fill="#FFD370" d="M171.007 8.702l19.734 1.034c35.704 1.872 61.467 9.543 82.979 22.54 21.512 12.996 37.972 31.276 48.648 54.029 10.677 22.753 15.613 49.176 13.742 84.88l-.668 12.744c-1.871 35.704-9.542 61.467-22.539 82.979-12.996 21.512-31.276 37.972-54.03 48.648-22.752 10.677-49.175 15.613-84.88 13.742l-19.734-1.034c-35.704-1.872-61.467-9.543-82.979-22.54-21.512-12.996-37.972-31.276-48.648-54.029-10.677-22.753-15.613-49.176-13.742-84.88l.668-12.744c1.871-35.704 9.542-61.467 22.539-82.979C45.093 49.58 63.373 33.12 86.127 22.444c22.752-10.677 49.175-15.613 84.88-13.742z"/>
        <path fill="#FFF" d="M198.024 63.18c1.457.616 2.604 1.793 3.182 3.265l66.84 169.858c1.189 3.05-.28 6.49-3.304 7.742l-120.49 48.361c-1.458.632-3.11.64-4.573.02-1.463-.62-2.608-1.81-3.17-3.297L68.072 120.174c-1.19-3.05.278-6.49 3.303-7.742l122.09-49.264c1.46-.61 3.104-.605 4.56.011z"/>
        <use fill="#2E2411" xlink:href="#mz1we1212a"/>
    </g>
</svg>
