<svg xmlns="http://www.w3.org/2000/svg" viewBox="0 0 192 192">
    <g fill="none" fill-rule="evenodd">
        <g>
            <g>
                <path fill="#FFD370" d="M93.1 7h8.408c19.3 0 34.486 3.62 47.197 10.418 12.711 6.798 22.687 16.774 29.485 29.485 6.798 12.711 10.418 27.898 10.418 47.197v4.128c0 19.3-3.62 34.486-10.418 47.197-6.798 12.711-16.774 22.687-29.485 29.485-12.711 6.798-27.898 10.418-47.197 10.418H93.1c-19.3 0-34.486-3.62-47.197-10.418-12.711-6.798-22.687-16.774-29.485-29.485C9.62 132.714 6 117.528 6 98.228V94.1c0-19.3 3.62-34.486 10.418-47.197 6.798-12.711 16.774-22.687 29.485-29.485C58.614 10.62 73.801 7 93.1 7z" transform="translate(-92 -128) translate(91 128) rotate(4 97.304 96.164)"/>
                <g fill="#FFF">
                    <path d="M48.995 103.93c.661 8.65 2.496 17.714 5.506 27.193l-.026-.088c6.838.879 12.906 3.04 15.956 6.484 1.533 1.73 0 2.29 0 2.29H24.12s-1.533-.56 0-2.29c2.953-3.336 8.739-5.468 15.313-6.397h-.649c3.176-9.478 5.048-18.542 5.614-27.192zM31.983 0c2.108 1.446 6.288 5.353 9.214 8.213.276.27 9.322-.319 12.956 0 1.142.1 8.607-8.59 9.803-7.824.547.35 4.46 17.182 6.445 36.429l.017.215h6.518c1.48 0 2.692 1.206 2.692 2.681l-1.672 18.453c0 4.344-.908 9.438-2.543 14.62 1.832-5.678 2.749-10.918 2.749-15.718h14.696c.076 8.673-7.262 29.068-24.233 31.395 1.751-3.301 3.261-6.488 4.53-9.558-5.535 13.07-15.306 25.024-26.377 25.024-11.768 0-22.067-13.506-27.371-27.502 1.511 4.258 3.456 8.305 5.836 12.14C7.644 86.841.05 65.89.128 57.068h15.373l-1.573-17.354c0-1.475 1.211-2.68 2.692-2.68l9.35-.001.031-.796C26.678 19.483 29.298 9.627 31.983 0z" transform="translate(-92 -128) translate(91 128) translate(47.244 28.4)"/>
                </g>
                <g stroke="#000">
                    <path stroke-linecap="round" stroke-linejoin="round" stroke-width="2" d="M62.811 36.238C63.416 19.363 66.003 9.566 68.655 0c2.048 1.414 6.11 5.234 8.953 8.03.268.264 9.057-.312 12.589 0 1.11.098 8.363-8.398 9.525-7.65.532.342 4.333 16.798 6.262 35.615" transform="translate(-92 -128) translate(91 128) translate(14.56 28.4)"/>
                    <path stroke-linecap="round" stroke-linejoin="round" stroke-width="2" d="M75.012 18.553c-.122.345-.247.712-.147 1.064.1.35.52.652.898.525.226-.778.118-1.632-.298-2.344-.32.178-.445.588-.272.887M91.479 17.798c-.161.793-.07 1.64.256 2.373.65-.563.54-1.825-.196-2.255l-.128.83M82.447 23.211c1.424.492 2.518-.785 2.993-1.853.444.752 1.08 2.198 2.995 1.607M46.119 18.985c1.301-.288 13.805-2.477 23.674-.071M44.935 24.917c5.349-2.162 19.208-3.919 24.858-3.495M47.303 30.85c5.204-2.53 14.393-4.906 21.307-4.737M98.203 18.38c7.668-.952 20.11-.726 26.042.605M100.57 22.623c5.051-.128 14.346-.56 22.491 3.481M98.203 24.917c2.498.212 14.94 2.173 21.307 7.12M62.105 86.589c-17.1-1.69-24.478-22.171-24.403-30.795M37.381 54.492L52.061 54.569M59.813 82.267c-11.26-2.387-16.148-16.252-16.096-22.258M43.482 59.057L52.061 59.113M104.26 86.487c16.49-2.275 23.62-22.215 23.546-30.693M128.127 54.492L113.526 54.492M106.488 82.077c10.696-2.852 15.353-16.205 15.302-22.068M122.025 59.057L114.008 59.113M85.185 101.752c.899 11.897 3.712 21.186 5.35 25.758m-15.273.682c1.543-4.252 4.51-13.809 5.455-26.538" transform="translate(-92 -128) translate(91 128) translate(14.56 28.4)"/>
                    <path stroke-linecap="round" stroke-linejoin="round" stroke-width="2" d="M83.03 101.607c-16.662 0-30.294-28.039-30.294-44.74l-1.625-18.04c0-1.442 1.176-2.621 2.615-2.621h58.61c1.437 0 2.614 1.179 2.614 2.62l-1.625 18.04c0 16.702-13.633 44.741-30.295 44.741zM106.014 136.685H61.013s-1.49-.548 0-2.24c7.954-9.038 37.046-9.038 45.001 0 1.49 1.692 0 2.24 0 2.24z" transform="translate(-92 -128) translate(91 128) translate(14.56 28.4)"/>
                    <path stroke-linecap="round" stroke-linejoin="round" stroke-width="2" d="M79.546 61.535c-4.968.675-7.52 1.154-7.659 1.437-.207.423 5.127 4.956 5.464 5.268.337.313-1.385 7.72-.732 8.112.654.393 6.231-4.257 6.839-4.047.607.21 6.993 3.898 7.393 3.469.401-.43-2.486-6.33-1.61-7.758.877-1.43 5.57-5.754 5.516-6.089-.055-.334-7.542-.424-8.195-.643-.654-.22-3.309-7.125-3.6-7.096-.194.019-1.087 1.902-2.68 5.649" transform="translate(-92 -128) translate(91 128) translate(14.56 28.4)"/>
                    <path stroke-width="1.5" d="M144.175 90.025c.49-.179 1.033.074 1.211.566.178.491-.074 1.035-.565 1.214-.49.179-1.033-.074-1.21-.566-.18-.491.073-1.035.564-1.214zM149.272 67.036c.49-.18 1.033.074 1.211.565.178.492-.074 1.035-.565 1.215-.49.178-1.033-.075-1.21-.566-.18-.492.074-1.035.564-1.214zM134.198 15.225c.49-.18 1.033.074 1.211.566.178.492-.074 1.035-.565 1.214-.49.178-1.032-.075-1.21-.566-.179-.492.074-1.035.564-1.214zM4.148 43.288c.49-.18 1.032.075 1.211.566.178.492-.075 1.035-.565 1.214-.49.178-1.033-.075-1.21-.566-.18-.492.073-1.035.564-1.214zM124.815 35.117c1.226-.447 2.582.187 3.028 1.416.446 1.228-.186 2.587-1.412 3.034-1.226.447-2.58-.187-3.027-1.415-.447-1.23.185-2.588 1.411-3.035zM111.549 114.435c1.225-.447 2.58.187 3.027 1.416.446 1.229-.186 2.587-1.412 3.034-1.225.448-2.58-.187-3.027-1.415-.446-1.228.186-2.587 1.412-3.035zM16.31 95.882c1.225-.447 2.58.187 3.027 1.415.446 1.23-.186 2.587-1.412 3.035-1.226.447-2.58-.187-3.028-1.415-.446-1.229.186-2.588 1.412-3.035zM25.378 11.649c1.225-.447 2.58.186 3.027 1.415.446 1.229-.186 2.587-1.412 3.034-1.225.448-2.58-.185-3.027-1.414-.446-1.229.186-2.588 1.412-3.035z" transform="translate(-92 -128) translate(91 128) translate(14.56 28.4)"/>
                    <path stroke-linecap="round" stroke-linejoin="round" stroke-width="1.5" d="M24.778 44.68c.606-.825 2.349-1.561 3.616-1.117-1.22-.865-1.026-2.548-.655-3.188-.669.648-2.389 1.174-3.293.9.945.662.88 2.701.332 3.406zM44.455 111.611c.605-.825 2.348-1.562 3.616-1.118-1.22-.865-1.026-2.548-.655-3.187-.67.647-2.388 1.173-3.293.899.944.663.88 2.702.332 3.406zM.332 69.917c.605-.826 2.349-1.562 3.616-1.118-1.218-.865-1.026-2.548-.655-3.188-.67.648-2.388 1.175-3.293.9.945.662.881 2.702.332 3.406zM164.76 76.464c.605-.826 2.348-1.562 3.615-1.118-1.22-.865-1.026-2.548-.655-3.188-.669.648-2.389 1.174-3.293.9.945.662.88 2.701.332 3.406zM150.704 42.377c.605-.826 2.348-1.562 3.616-1.119-1.22-.865-1.026-2.547-.655-3.187-.67.648-2.39 1.174-3.294.9.945.662.881 2.701.333 3.406zM119.322 96.27c.225.623.282 1.61-.84 2.12.888-.323 1.688.493 1.938.906-.105-.567.193-1.683.782-1.999-1.243.454-1.687-.493-1.88-1.027z" transform="translate(-92 -128) translate(91 128) translate(14.56 28.4)"/>
                    <path stroke-width="1.5" d="M25.57 72.11c.491-.179 1.033.075 1.212.567.178.49-.075 1.035-.565 1.214-.49.178-1.033-.075-1.21-.567-.18-.491.073-1.035.564-1.213z" transform="translate(-92 -128) translate(91 128) translate(14.56 28.4)"/>
                </g>
            </g>
        </g>
    </g>
</svg>
